<svg xmlns="http://www.w3.org/2000/svg" xmlns:xlink="http://www.w3.org/1999/xlink" width="1008.001" height="900" viewBox="0 0 1008.001 900">
  <defs>
    <clipPath id="clip-path">
      <rect id="Прямоугольник_272" data-name="Прямоугольник 272" width="364" height="354" transform="translate(644)" fill="#fff"/>
    </clipPath>
    <clipPath id="clip-path-2">
      <rect id="Прямоугольник_273" data-name="Прямоугольник 273" width="305" height="207" transform="translate(25 693)" fill="#fff" stroke="#707070" stroke-width="1"/>
    </clipPath>
  </defs>
  <g id="svg" transform="translate(0)">
    <rect id="background" width="1008" height="900" fill="#4791ff"/>
    <g id="_1" data-name="1" transform="translate(-45.732 268.209)" opacity="0.9">
      <path id="Контур_435" data-name="Контур 435" d="M721.732,204.791h-596v-2h594a12,12,0,0,0,12-12V-204.752h-606v-2.611h606v-22.846a11.921,11.921,0,0,0-3.514-8.485,11.921,11.921,0,0,0-8.485-3.514h-594v-2h596a11.922,11.922,0,0,1,8.485,3.515,11.922,11.922,0,0,1,3.515,8.485v425a12,12,0,0,1-12,12Z" transform="translate(-80 244)" fill="#fff"/>
      <path id="Контур_436" data-name="Контур 436" d="M234.581,116.18a6.534,6.534,0,0,1-6.527-6.526V-33.921a6.532,6.532,0,0,1,6.526-6.526H256.77a6.534,6.534,0,0,1,6.527,6.526V109.654a6.534,6.534,0,0,1-6.527,6.526Zm-3.916-150.1V109.654a3.919,3.919,0,0,0,3.916,3.915H256.77a3.919,3.919,0,0,0,3.916-3.915V-33.921a3.92,3.92,0,0,0-3.916-3.916H234.581A3.921,3.921,0,0,0,230.666-33.921Zm-39.157,150.1H169.32a6.533,6.533,0,0,1-6.526-6.526V-33.921a6.532,6.532,0,0,1,6.526-6.526h22.189a6.533,6.533,0,0,1,6.527,6.526V109.654a6.534,6.534,0,0,1-6.526,6.526Zm-26.1-150.1V109.654a3.919,3.919,0,0,0,3.916,3.915h22.189a3.919,3.919,0,0,0,3.916-3.915V-33.921a3.92,3.92,0,0,0-3.916-3.916H169.32A3.921,3.921,0,0,0,165.4-33.921Zm-61.346,150.1a6.534,6.534,0,0,1-6.526-6.526V-33.921a6.533,6.533,0,0,1,6.526-6.526h22.189a6.533,6.533,0,0,1,6.526,6.526V109.654a6.534,6.534,0,0,1-6.526,6.526Zm-3.915-150.1V109.654a3.918,3.918,0,0,0,3.915,3.915h22.189a3.918,3.918,0,0,0,3.915-3.915V-33.921a3.919,3.919,0,0,0-3.915-3.916H104.058A3.919,3.919,0,0,0,100.143-33.921ZM70.482-138.339a9.137,9.137,0,0,1-9.137-9.137,9.137,9.137,0,0,1,9.137-9.137h259.74a9.137,9.137,0,0,1,9.137,9.137,9.137,9.137,0,0,1-9.137,9.137Zm0-44.378a9.137,9.137,0,0,1-9.137-9.137,9.137,9.137,0,0,1,9.137-9.137H180.121a9.137,9.137,0,0,1,9.137,9.137,9.137,9.137,0,0,1-9.137,9.137Zm-9.137-77.341a7.741,7.741,0,0,1,7.742-7.742,7.741,7.741,0,0,1,7.741,7.742,7.741,7.741,0,0,1-7.741,7.742A7.742,7.742,0,0,1,61.345-260.058Zm-15.613,7.51v-15.662h.09a7.84,7.84,0,0,1,7.832,7.831,7.841,7.841,0,0,1-7.832,7.832Z" transform="translate(0 279.995)" fill="#fff" opacity="0.32"/>
      <path id="Контур_8" data-name="Контур 8" d="M792.413,306.3a118.78,118.78,0,0,0,97.949,185.965V388.58Z" transform="translate(-398.307 -146.996)" fill="#fff"/>
      <path id="Контур_9" data-name="Контур 9" d="M885.492,266.78a118.64,118.64,0,0,0-97.95,51.587l97.95,82.278Z" transform="translate(-393.437 -159.06)" fill="#ff6584"/>
      <g id="Контур_10" data-name="Контур 10" transform="translate(-370.177 -158.06)" fill="rgba(255,255,255,0.32)">
        <path d="M 862.878173828125 502.3311157226562 L 862.5867309570312 502.3311157226562 L 862.5867309570312 266.7795715332031 L 862.878173828125 266.7795715332031 C 870.8697509765625 266.7795715332031 878.8560180664062 267.5846252441406 886.6151123046875 269.1723937988281 C 894.176513671875 270.7196655273438 901.6141357421875 273.0284118652344 908.7213745117188 276.0345458984375 C 915.6998291015625 278.9862060546875 922.4306640625 282.6395874023438 928.726806640625 286.8932189941406 C 934.9634399414062 291.1065979003906 940.828125 295.9454650878906 946.157958984375 301.2752685546875 C 951.48779296875 306.6051025390625 956.3265380859375 312.4698181152344 960.5399169921875 318.7064819335938 C 964.7935791015625 325.002685546875 968.4468994140625 331.7335205078125 971.3985595703125 338.7119750976562 C 974.4046630859375 345.8193054199219 976.7134399414062 353.2569580078125 978.2606811523438 360.818359375 C 979.8484497070312 368.5775146484375 980.6535034179688 376.5637817382812 980.6535034179688 384.5553894042969 C 980.6535034179688 392.5469970703125 979.8484497070312 400.5332641601562 978.2606811523438 408.2923583984375 C 976.7134399414062 415.8537902832031 974.4046630859375 423.2914123535156 971.3985595703125 430.3987121582031 C 968.4468994140625 437.377197265625 964.7935791015625 444.1080017089844 960.5399169921875 450.4042358398438 C 956.3265380859375 456.640869140625 951.48779296875 462.5055847167969 946.157958984375 467.8354187011719 C 940.828125 473.1652221679688 934.9634399414062 478.0040893554688 928.726806640625 482.2174377441406 C 922.4306640625 486.4710998535156 915.6998291015625 490.1244812011719 908.7213745117188 493.0761108398438 C 901.6141357421875 496.0822448730469 894.176513671875 498.3910217285156 886.6151123046875 499.9382934570312 C 878.8560180664062 501.5260314941406 870.8697509765625 502.3311157226562 862.878173828125 502.3311157226562 Z" stroke="none"/>
        <path d="M 863.5867309570312 501.3289794921875 C 871.2745971679688 501.2828674316406 878.9505004882812 500.4859924316406 886.4146118164062 498.9586181640625 C 893.911376953125 497.424560546875 901.2853393554688 495.1355285644531 908.3318481445312 492.1551208496094 C 915.2508544921875 489.2286071777344 921.92431640625 485.6063232421875 928.1670532226562 481.3888244628906 C 934.3508911132812 477.2110900878906 940.166015625 472.4131469726562 945.4508056640625 467.1282958984375 C 950.7356567382812 461.8434448242188 955.5335693359375 456.0283203125 959.7113037109375 449.8444213867188 C 963.9287719726562 443.6017456054688 967.551025390625 436.9281616210938 970.4775390625 430.0091857910156 C 973.4579467773438 422.9626770019531 975.7469482421875 415.5886535644531 977.281005859375 408.0918884277344 C 978.8552856445312 400.3986206054688 979.6535034179688 392.4797973632812 979.6535034179688 384.5553894042969 C 979.6535034179688 376.6309814453125 978.8552856445312 368.7121276855469 977.281005859375 361.0188598632812 C 975.7469482421875 353.5220642089844 973.4579467773438 346.1480407714844 970.4775390625 339.1015319824219 C 967.551025390625 332.1825256347656 963.9287719726562 325.5089721679688 959.7113037109375 319.2662658691406 C 955.5335693359375 313.0823669433594 950.7356567382812 307.2672424316406 945.4508056640625 301.9823913574219 C 940.166015625 296.6975402832031 934.3508911132812 291.8995971679688 928.1670532226562 287.7218322753906 C 921.92431640625 283.5043640136719 915.2508544921875 279.8820495605469 908.3318481445312 276.95556640625 C 901.2853393554688 273.9751281738281 893.911376953125 271.6861267089844 886.4146118164062 270.1520690917969 C 878.9505004882812 268.6246948242188 871.2745971679688 267.8278198242188 863.5867309570312 267.7817077636719 L 863.5867309570312 501.3289794921875 M 862.878173828125 503.3311157226562 L 861.5867309570312 503.3311157226562 L 861.5867309570312 265.7795715332031 L 862.878173828125 265.7795715332031 C 928.47607421875 265.7795715332031 981.6535034179688 318.9572448730469 981.6535034179688 384.5553894042969 C 981.6535034179688 450.1534118652344 928.47607421875 503.3311157226562 862.878173828125 503.3311157226562 Z" stroke="none" fill="#fff"/>
      </g>
      <path id="Контур_11" data-name="Контур 11" d="M588.885,504.983H566.7a5.88,5.88,0,0,1-5.874-5.874V435.153a5.88,5.88,0,0,1,5.874-5.873h22.189a5.88,5.88,0,0,1,5.874,5.873v63.956a5.88,5.88,0,0,1-5.874,5.874Z" transform="translate(-462.638 -109.46)" fill="#fff"/>
      <path id="Контур_12" data-name="Контур 12" d="M638.885,512H616.7a5.88,5.88,0,0,1-5.873-5.874V412.153a5.881,5.881,0,0,1,5.874-5.874h22.189a5.88,5.88,0,0,1,5.874,5.874V506.13A5.88,5.88,0,0,1,638.885,512Z" transform="translate(-447.377 -116.48)" fill="#ff6584"/>
      <g id="Контур_13" data-name="Контур 13" transform="translate(-432.768 -122.585)" fill="#4791ff">
        <path d="M 689.9635009765625 517.7603149414062 L 666.9224243164062 517.7603149414062 C 664.1142578125 517.7572021484375 661.8261108398438 515.557373046875 661.8229370117188 512.8565063476562 L 661.8229370117188 392.1822509765625 C 661.8261108398438 389.4826354980469 664.1142578125 387.2828063964844 666.923583984375 387.2796020507812 L 689.964599609375 387.2796020507812 C 692.77294921875 387.2826232910156 695.0612182617188 389.4824523925781 695.0645141601562 392.1834716796875 L 695.0645141601562 512.857666015625 C 695.0612182617188 515.5573120117188 692.7728881835938 517.7572021484375 689.9635009765625 517.7603149414062 Z" stroke="none"/>
        <path d="M 689.96240234375 516.7603149414062 C 692.2216796875 516.7578125 694.0618896484375 515.0060424804688 694.0645141601562 512.857666015625 L 694.0645141601562 392.1846923828125 C 694.0618896484375 390.0338439941406 692.2217407226562 388.2820434570312 689.964599609375 388.2796020507812 L 666.9246826171875 388.2796020507812 C 664.66552734375 388.2821655273438 662.8255004882812 390.0339660644531 662.8229370117188 392.1822509765625 L 662.8229370117188 512.8552856445312 C 662.8255004882812 515.0060424804688 664.6654663085938 516.7578125 666.9224243164062 516.7603149414062 L 689.96240234375 516.7603149414062 M 689.964599609375 518.7603149414062 L 666.9224243164062 518.7603149414062 C 663.55517578125 518.756591796875 660.8267822265625 516.1161499023438 660.8229370117188 512.857666015625 L 660.8229370117188 392.1822509765625 C 660.8267822265625 388.923828125 663.55517578125 386.283447265625 666.9224243164062 386.2796020507812 L 689.964599609375 386.2796020507812 C 693.3316040039062 386.283203125 696.060546875 388.9237060546875 696.0645141601562 392.1822509765625 L 696.0645141601562 512.857666015625 C 696.060546875 516.1161499023438 693.3316040039062 518.756591796875 689.964599609375 518.7603149414062 Z" stroke="none" fill="#fff"/>
      </g>
    </g>
    <g id="_2" data-name="2" transform="translate(-72.291 29.997)" opacity="0.9">
      <path id="Контур_433" data-name="Контур 433" d="M488.291,181h-336v-2h336a10.011,10.011,0,0,0,10-10V-5a10.011,10.011,0,0,0-10-10h-336v-2h336a11.919,11.919,0,0,1,8.485,3.515A11.921,11.921,0,0,1,500.291-5V169a12,12,0,0,1-12,12Z" transform="translate(-80 17)" fill="#fff"/>
      <path id="Контур_34" data-name="Контур 34" d="M741.188,267.666H473.059a.906.906,0,0,1,0-1.812H741.188a.906.906,0,1,1,0,1.812Z" transform="translate(-373.42 -225.754)" fill="#fff" opacity="0.32"/>
      <path id="Контур_35" data-name="Контур 35" d="M741.188,301.666H473.059a.906.906,0,0,1,0-1.812H741.188a.906.906,0,1,1,0,1.812Z" transform="translate(-373.42 -228.955)" fill="#fff" opacity="0.32"/>
      <path id="Контур_36" data-name="Контур 36" d="M741.188,335.666H473.059a.906.906,0,0,1,0-1.812H741.188a.906.906,0,1,1,0,1.812Z" transform="translate(-373.42 -232.157)" fill="#fff" opacity="0.32"/>
      <path id="Контур_37" data-name="Контур 37" d="M741.188,369.666H473.059a.906.906,0,0,1,0-1.812H741.188a.906.906,0,1,1,0,1.812Z" transform="translate(-373.42 -235.358)" fill="#ff6584"/>
      <path id="Контур_38" data-name="Контур 38" d="M525.952,400.371H499.683a4.534,4.534,0,0,1-4.529-4.529V371.384a4.534,4.534,0,0,1,4.529-4.529h26.269a4.534,4.534,0,0,1,4.529,4.529v24.458a4.535,4.535,0,0,1-4.529,4.529Z" transform="translate(-375.585 -235.264)" fill="#fff"/>
      <path id="Контур_39" data-name="Контур 39" d="M590.952,397.169H564.683a4.535,4.535,0,0,1-4.529-4.529V337.384a4.535,4.535,0,0,1,4.529-4.529h26.269a4.534,4.534,0,0,1,4.529,4.529V392.64A4.534,4.534,0,0,1,590.952,397.169Z" transform="translate(-381.706 -232.063)" fill="#fff"/>
      <path id="Контур_40" data-name="Контур 40" d="M656.952,393.968h-26.27a4.534,4.534,0,0,1-4.529-4.529V303.384a4.534,4.534,0,0,1,4.529-4.529h26.27a4.534,4.534,0,0,1,4.529,4.529v86.055A4.534,4.534,0,0,1,656.952,393.968Z" transform="translate(-387.92 -228.861)" fill="#fff"/>
      <path id="Контур_41" data-name="Контур 41" d="M724.952,388.653H698.683a4.5,4.5,0,0,1-4.529-4.449V270.3a4.5,4.5,0,0,1,4.529-4.449h26.269a4.5,4.5,0,0,1,4.529,4.449V384.2A4.5,4.5,0,0,1,724.952,388.653Z" transform="translate(-394.323 -224.639)" fill="rgba(255,255,255,0.32)" stroke="#fff" stroke-width="2"/>
      <path id="Контур_42" data-name="Контур 42" d="M741.188,403.666H473.059a.906.906,0,0,1,0-1.812H741.188a.906.906,0,1,1,0,1.812Z" transform="translate(-373.42 -238.56)" fill="#fff"/>
    </g>
    <g id="_5" data-name="5" transform="translate(647.853 376)" opacity="0.9">
      <path id="Контур_437" data-name="Контур 437" d="M-597.854,148h-2V-364a11.918,11.918,0,0,1,3.515-8.485A11.915,11.915,0,0,1-587.853-376h348v2h-348a10.012,10.012,0,0,0-10,10Z" transform="translate(600 375.999)" fill="#fff"/>
      <path id="Контур_162" data-name="Контур 162" d="M400.095,413.611c1.015-13.782,2.691-30.726,16.327-38.089,6.434-3.474,13.247-2.245,19.716.463,6.251,2.617,12.14,5.736,18.872,6.966a54.782,54.782,0,0,0,34.054-5.107,52.345,52.345,0,0,0,24.09-24.655c2.582-5.443,4.715-11.342,8.519-16.093a17.9,17.9,0,0,1,16.548-6.848c14.3,1.765,23.786,14.293,35.185,21.668,5.482,3.547,11.777,6.137,18.415,5.819,6.809-.326,12.98-3.549,18.2-7.756,11.071-8.928,17.125-22.735,28.743-31.054a39.808,39.808,0,0,1,38.208-4.06c11.908,5.137,20.339,16.646,22.567,29.313a37.658,37.658,0,0,1,.41,9.452c-.145,1.86,2.755,1.851,2.9,0a42.685,42.685,0,0,0-14.567-35.017c-10.28-8.868-24.641-11.75-37.7-8.338a41.779,41.779,0,0,0-17.8,9.836c-5.374,4.956-9.613,10.962-14.149,16.654-4.425,5.553-9.308,10.915-15.519,14.5a23.972,23.972,0,0,1-20.037,2.279c-6.7-2.262-12.386-6.921-17.75-11.383-5.53-4.6-11.033-9.2-17.68-12.123-6.18-2.717-13.268-4.035-19.7-1.359-5.8,2.412-9.639,7.42-12.484,12.836-2.888,5.5-4.945,11.426-8.315,16.668a47.259,47.259,0,0,1-12.326,12.828,52.936,52.936,0,0,1-34.15,9.757c-6.611-.47-12.622-2.559-18.608-5.3-6.607-3.02-13.566-6.162-21-4.7-6.413,1.262-11.808,5.619-15.554,10.824-4.325,6.009-6.225,13.375-7.217,20.61-.519,3.785-.815,7.592-1.1,11.4C397.059,415.472,399.958,415.463,400.095,413.611Z" transform="translate(-372.371 -170.219)" fill="#ff6584"/>
      <path id="Контур_173" data-name="Контур 173" d="M723.851,418.161H397a1.023,1.023,0,0,1-1.023-1.023l.5-1.138,327.38.115a1.023,1.023,0,0,1,.008,2.046h-.008Z" transform="translate(-372.33 -173.825)" fill="#fff"/>
      <rect id="Прямоугольник_12" data-name="Прямоугольник 12" width="2.006" height="5.717" transform="translate(84.834 237.18)" fill="#fff"/>
      <rect id="Прямоугольник_13" data-name="Прямоугольник 13" width="2.006" height="38.572" transform="translate(144.898 204.325)" fill="#f2f2f2"/>
      <rect id="Прямоугольник_14" data-name="Прямоугольник 14" width="2.006" height="84.956" transform="translate(205.085 157.941)" fill="#f2f2f2"/>
      <rect id="Прямоугольник_15" data-name="Прямоугольник 15" width="2.006" height="124.575" transform="translate(265.272 118.321)" fill="#fff"/>
      <rect id="Прямоугольник_16" data-name="Прямоугольник 16" width="2.006" height="33.74" transform="translate(325.46 209.156)" fill="#fff"/>
      <ellipse id="Эллипс_35" data-name="Эллипс 35" cx="6.137" cy="6.137" rx="6.137" ry="6.137" transform="translate(260.262 99.103)" fill="#fff"/>
      <ellipse id="Эллипс_36" data-name="Эллипс 36" cx="6.137" cy="6.137" rx="6.137" ry="6.137" transform="translate(201.041 135.105)" fill="#fff"/>
      <ellipse id="Эллипс_37" data-name="Эллипс 37" cx="6.137" cy="6.137" rx="6.137" ry="6.137" transform="translate(320.449 191.714)" fill="#fff"/>
      <path id="ba0cc859-1ca5-421a-9acf-7fb9aa3b4e23-2190" d="M520.833,635.928V563.513c0-.929,1.08-1.682,2.413-1.682h10.767c1.333,0,2.413.753,2.413,1.682h0v72.6Z" transform="translate(-376.534 -178.736)" fill="#fff"/>
      <path id="a524792d-c043-478e-a7da-ec48af772355-2191" d="M557.633,636.778V581.447c0-.892,1.08-1.616,2.413-1.616h10.767c1.333,0,2.413.724,2.413,1.616h0v55.212Z" transform="translate(-377.773 -179.342)" fill="#fff"/>
      <path id="fd6a765d-e5c4-40cb-8615-8d176b643a05-2192" d="M631.234,637.626V609.484c-.095-.336.982-.628,2.412-.653h10.767c1.431.025,2.507.317,2.413.653V637.7Z" transform="translate(-380.251 -180.318)" fill="#fff"/>
      <path id="bd64d803-c830-42f7-b93c-47122685f128-2193" d="M484.032,637.626V609.484c0-.361,1.08-.653,2.413-.653h10.767c1.333,0,2.413.293,2.413.653V637.7Z" transform="translate(-375.295 -180.318)" fill="#ff6584"/>
      <path id="f4fc54bd-288c-4bcd-8f44-6b7e88ac2463-2194" d="M594.433,633.494V497.6c0-1.743,1.081-3.156,2.413-3.156h10.767c1.333,0,2.413,1.413,2.413,3.156V633.848Z" transform="translate(-379.012 -176.467)" fill="rgba(255,255,255,0.32)" stroke="#f7f7f7" stroke-width="2"/>
      <path id="Контур_174" data-name="Контур 174" d="M686.871,639.933H443.356a.966.966,0,1,1,0-1.933H686.871a.966.966,0,1,1,0,1.933Z" transform="translate(-373.892 -181.3)" fill="#fff"/>
      <ellipse id="Эллипс_38" data-name="Эллипс 38" cx="6.137" cy="6.137" rx="6.137" ry="6.137" transform="translate(79.975 218.55)" fill="#ff6584"/>
      <ellipse id="Эллипс_39" data-name="Эллипс 39" cx="6.137" cy="6.137" rx="6.137" ry="6.137" transform="translate(139.887 184.729)" fill="#fff"/>
    </g>
    <path id="Контур_429" data-name="Контур 429" d="M320.909,93.254c-3.671-15.782-14.05-26.308-30.856-31.284-19.762-5.854-43.416-2.41-55.759.17a53.156,53.156,0,0,0-17.544,7.348,25.4,25.4,0,0,0-5.882,5.153c-.484.579-.881,1.208-1.307,1.82C191.33,68.18,168.738,67.535,156.571,68a53.123,53.123,0,0,0-18.524,4.246,25.573,25.573,0,0,0-6.686,4.092C115.7,89.618,118.8,119.406,120.29,129.07a21.723,21.723,0,0,0-12.886,8.647c-4.379,6.546-4.695,15.613-.928,26.95,3.082,9.236,12.207,29.073,16.1,37.542l.785,1.706-2.194,38.2c-.655,11.573,37.432,14.1,41.773,14.352,3.4.192,6.752.3,9.988.3a117.979,117.979,0,0,0,18.724-1.334c9.479-1.577,14.2-4.335,14.433-8.441l2.215-38.594a163.227,163.227,0,0,0,9.617-16.537c2.29,3.374,4.372,6.406,5.866,8.581l.883,1.286,1.218,10.692c0,.005,0,.01,0,.016a.093.093,0,0,0,.005.017l3.113,27.3c.752,6.583,13.482,8.1,25.064,8.1a176.519,176.519,0,0,0,18.539-1.061,136.306,136.306,0,0,0,28.122-5.9c9.073-3.162,13.253-6.686,12.79-10.769l-4.38-38.409c3.7-8.156,22.408-52.721,11.774-98.452ZM200.146,246.3c-1.416,2.167-14.934,5.41-36.85,4.136s-34.992-6.022-36.1-7.983l.447-7.789c7.827,3.954,21.807,5.745,29.134,6.441.309.03.619.044.928.044a9.637,9.637,0,0,0,.96-19.231c-18.563-1.7-28.4-5.492-29.87-7.282l.3-5.3c7.378,4.031,21,7.273,35.986,8.135,2.6.147,5.183.222,7.71.222,12.076,0,22.8-1.668,29.18-4.33Zm-72.132-18.075.39-6.775c7.939,4.013,22.239,5.8,29.716,6.481a3.579,3.579,0,0,1,1.968,6.287,3.5,3.5,0,0,1-2.742.87c-19.814-1.879-28.505-5.854-29.33-6.855a.019.019,0,0,1,0-.009ZM202.473,206.2c-1.437,1.938-14.987,6.45-37.049,5.226-22.491-1.29-35.044-7.194-36.259-9.346l-1.106-2.4c-3.847-8.381-12.877-28.011-15.848-36.93-3.139-9.435-3.082-16.719.185-21.634,2.863-4.316,7.632-5.829,10.063-6.345,2.269,3.228,8.184,13.387,7.605,31.473a3.011,3.011,0,0,0,2.919,3.111.446.446,0,0,0,.1.007,3.02,3.02,0,0,0,3.015-2.926c.7-21.7-7.2-33.35-9.493-36.257-.891-5.034-5.864-36.92,8.668-49.248a19.553,19.553,0,0,1,5.109-3.118,47.145,47.145,0,0,1,16.417-3.79c9.3-.3,32.1-.115,49.83,7.742-6.772,16.159-.383,38.729,2.3,46.734A21.685,21.685,0,0,0,197.7,139.218c-3.207,7.194-1.968,16.18,3.671,26.707,2.632,4.9,7.752,12.811,12.671,20.171a158.058,158.058,0,0,1-11.566,20.111Zm26.287-9.192c-4.807-7-17.573-25.563-22.069-33.952-4.695-8.757-5.875-15.945-3.5-21.34,2.085-4.74,6.529-7.042,8.839-7.965,2.784,2.793,10.339,11.8,12.84,29.718a3.027,3.027,0,0,0,2.985,2.6,4.072,4.072,0,0,0,.428-.03,3.029,3.029,0,0,0,2.573-3.412c-3-21.486-12.756-31.622-15.52-34.1-1.736-4.786-12.089-35.366.164-50.013a19.509,19.509,0,0,1,4.5-3.936,46.959,46.959,0,0,1,15.539-6.53c11.756-2.463,34.284-5.794,52.81-.287,14.566,4.312,23.544,13.349,26.684,26.862,11.021,47.391-11.713,95.311-12.008,95.915-1.12,2.234-13.372,8.9-35.61,11.44-22.394,2.557-35.759-1.127-37.329-3.045Zm4.629,27.883-.769-6.742c8.505,2.608,22.9,1.938,30.381,1.327a3.616,3.616,0,0,1,3.819,3.169,3.564,3.564,0,0,1-.8,2.69,3.67,3.67,0,0,1-2.55,1.327c-19.851,1.5-29.094-.921-30.075-1.769,0,0,0,0,0,0Zm38.538,15.889c-21.812,2.47-35.493.014-36.923-1.725l-.891-7.817c4.745,1.468,11.274,1.942,17.441,1.942,4.718,0,9.183-.25,12.368-.5a9.777,9.777,0,0,0,6.752-3.494,9.622,9.622,0,0,0-8.152-15.724c-18.554,1.47-28.918-.577-30.676-2.1l-.589-5.17c5.083,1.739,12.624,2.694,21.38,2.694a137.64,137.64,0,0,0,15.45-.907c14.962-1.7,28.6-5.807,35.668-10.274l3.791,32.735c-1.026,2.375-13.816,7.858-35.619,10.344Z" transform="translate(283.863 -28.757)" fill="#fff" stroke="#4791ff" stroke-width="4"/>
    <path id="Контур_430" data-name="Контур 430" d="M353.836,215.1h-97.98a5.958,5.958,0,0,0-6.143,4.733c-.064,9.647,2.939,40.566,42.3,54.492v14.9a12.627,12.627,0,0,0-12.486,12.611v8.686s.7,5.433,7.823,5.433h34.514s6.968-.594,6.968-6.311v-7.806A12.659,12.659,0,0,0,316.4,289.23V274.3c37.283-13.221,41.864-41.69,42.2-52.784a5.473,5.473,0,0,1,0-.8V220.5a4.721,4.721,0,0,0-4.758-5.393Zm-99.962,7.418a2.99,2.99,0,0,1,3.255-3.232h11.449a111.706,111.706,0,0,0,5.876,41.331c-17.32-12.834-20.259-29.73-20.58-38.1Zm70.756,79.317v7.806c-.286.939-1.177,2.112-3.862,2.112H287.687c-3.308,0-3.893-1.775-3.98-2.725v-7.2a8.455,8.455,0,0,1,8.442-8.442h24.019a8.464,8.464,0,0,1,8.463,8.444ZM296.192,289.2V275.688c2.383.73,4.854,1.429,7.507,2.014l.469.1.471-.1c2.67-.6,5.153-1.3,7.57-2.04V289.2Zm7.973-15.679s-17.526-5.405-23.854-9.089a110.182,110.182,0,0,1-7.655-41.472c0-.091.587-3.679,5.772-3.679H330.52c1.046.019,4.78-.111,4.78,4.1a1.371,1.371,0,0,1,0,.143v.042a111.022,111.022,0,0,1-7.721,41.043c-6.255,3.618-23.415,8.913-23.415,8.913Zm29.278-12.751a112.113,112.113,0,0,0,5.925-41.486h12.3c1.043.1,2.854.829,2.6,4.875v.008a50.293,50.293,0,0,1-20.83,36.6Z" transform="translate(106.028 554.666)" fill="#fff" stroke="#4791ff" stroke-linejoin="round" stroke-width="2.5" opacity="0.9"/>
    <g id="noun-gold-cup-657804" transform="translate(239.2 587.051)" opacity="0.9">
      <path id="Контур_432" data-name="Контур 432" d="M325.929,267.1H325.3c-1.932-2.24-8.573-11.023-8.607-25.365l20.037-13.713.381-7.167c12.469-11.156,15.089-27.33,15.615-34.945-.672-5.621-5.03-6.181-5.03-6.181h-8.316c-.272-2.656-4.836-3.832-5-3.88l-24.952-5.9-.288.065c-1.1.262-5.334,1.26-10.009,2.376l-13.794,3.267c-5.027,1.188-5.856,4.068-5.856,4.068h-9.115c-3.495,0-4.166,2.4-4.275,3.694.127,5.861,1.642,24.794,15.661,37.366l.4,7.23,20.021,13.713c-.018,14.274-6.687,23.125-8.607,25.365h-.607a14.458,14.458,0,0,0-13.907,10.66c-.095,1.252-.014,5.82,6.482,5.82h48.053c5.475,0,6.387-3.241,6.5-5.005A14.511,14.511,0,0,0,325.928,267.1Zm13.235-83.392h6.609c.512,0,3.128.661,2.712,4.429-.032.266-.06.5-.079.784-.014.095-.014.2-.032.266-.942,6.913-3.576,17.384-10.92,25.71Zm-68.89,2.809c-.014-1.053.353-2.809,3.18-2.809h6.274l1.692,31.1c-8.319-9.448-10.553-21.689-11.146-28.29Zm50,80.583h-8.859V245.365l1.436-.982a44.281,44.281,0,0,0,7.423,22.718Zm-34.256-41.269-2.285-41.626a4.876,4.876,0,0,1,4.152-5.06l21.552-5.108,22.556,5.332c1.232.415,3.321,1.6,3.146,5.132l-2.281,41.331-18.968,13.022a7.371,7.371,0,0,1-8.462.294Zm20.019,18.553,1.406.982V267.1H298.6a44.429,44.429,0,0,0,7.441-22.718Zm26.34,35.206H286.416c-3.529,0-2.952-2.259-2.712-2.9a10.459,10.459,0,0,1,9.257-5.621h32.97a10.478,10.478,0,0,1,8.781,4.806c.206.494,1.387,3.711-2.333,3.711Z" fill="#fff" stroke="#4791ff" stroke-linejoin="round" stroke-width="2"/>
    </g>
    <g id="Группа_масок_1" data-name="Группа масок 1" clip-path="url(#clip-path)">
      <path id="Контур_427" data-name="Контур 427" d="M554.9,359.715a238.146,238.146,0,0,0,8.43-22.985v0a237.684,237.684,0,0,0-59-239.021q-5.434-5.434-11.19-10.5c-5.615-4.944-11.529-9.515-17.569-13.9-6.335-4.6-12.817-8.98-19.565-12.928A239.085,239.085,0,0,0,267.8,37.932q-6.115,1.826-12.079,3.955a235.342,235.342,0,0,0-75.861,44.52c-3.992,3.461-8.072,7.268-12.123,11.319a235.525,235.525,0,0,0-67.9,138.8q-.769,6.2-1.21,12.385t-.576,12.36A237.512,237.512,0,0,0,315.317,503.051c1.1.1,2.184.181,3.28.266,5.914.435,11.835.683,17.765.683a238.459,238.459,0,0,0,28.478-1.7h.007a235.809,235.809,0,0,0,139.463-67.984c4.01-4.01,7.98-8.279,11.828-12.688a241.867,241.867,0,0,0,15.116-19.381c3.719-5.309,7.139-10.792,10.393-16.359q2.667-4.56,5.114-9.231c2.911-5.549,5.667-11.168,8.131-16.938Zm-12.334-3.121q-1.561,3.58-3.247,7.091c-.487,1.011-.974,2.022-1.476,3.022q-1.776,3.569-3.686,7.062c-.406.753-.8,1.516-1.221,2.265q-2.529,4.516-5.261,8.917c-.428.686-.882,1.358-1.321,2.048q-2.164,3.4-4.461,6.729-.991,1.433-2,2.852-2.191,3.077-4.5,6.084c-.631.826-1.247,1.657-1.889,2.468-.258.332-.546.649-.8.985L491.083,363.11l56.3-18.4q-1.743,4.721-3.7,9.334c-.358.86-.745,1.7-1.114,2.546Zm9.666-26.63-69.151,22.6-41.06-25.948-21.568-136.2,28.412-28.434,83.835-6.283a226.027,226.027,0,0,1,19.532,174.258ZM351.127,490.99c-.649.041-1.306.052-1.955.085q-4.754.271-9.515.343c-1.284.015-2.564,0-3.852,0q-3.929-.006-7.855-.155c-1.321-.048-2.638-.1-3.962-.17-2.892-.159-5.774-.38-8.659-.646-.941-.085-1.882-.144-2.819-.243q-5.65-.587-11.256-1.461c-.967-.148-1.93-.339-2.893-.5-2.826-.476-5.637-.989-8.438-1.572-1.273-.266-2.546-.55-3.815-.837q-3.885-.874-7.726-1.889c-1.184-.314-2.376-.612-3.553-.941-.583-.162-1.147-.358-1.723-.524l35.544-41.288,42.8,49.748a1.859,1.859,0,0,1-.328.048Zm-41.86-102.9L213.94,292.761l61.208-120.12L408.3,193.733,429.39,326.887ZM504.644,116.312c.956,1.077,1.867,2.191,2.8,3.284,1.985,2.317,3.929,4.66,5.818,7.054,1.026,1.3,2.025,2.623,3.025,3.944q2.618,3.475,5.088,7.047c.93,1.339,1.863,2.671,2.76,4.029.443.668.845,1.365,1.28,2.036l-72.556,5.438L458.3,76.588c.679.439,1.38.845,2.051,1.291,1.339.889,2.649,1.8,3.973,2.719q3.6,2.5,7.109,5.136c1.306.985,2.612,1.974,3.9,2.988,2.406,1.893,4.759,3.855,7.087,5.844,1.088.93,2.2,1.834,3.265,2.789,3.339,2.966,6.615,6.01,9.784,9.176s6.206,6.445,9.172,9.78ZM446.3,69.345l-6.283,83.8L411.6,181.58,275.454,160.012l-24.346-39.377L274.48,49.12A225.2,225.2,0,0,1,446.3,69.345ZM196.517,88.862c.878-.694,1.771-1.365,2.66-2.048q3.088-2.363,6.242-4.623c.978-.7,1.955-1.395,2.948-2.077q3.464-2.391,7.01-4.634c.708-.45,1.4-.919,2.11-1.365q4.588-2.839,9.3-5.457c.76-.424,1.546-.815,2.31-1.232q3.641-1.97,7.353-3.8c1.074-.528,2.151-1.04,3.236-1.553,2.339-1.107,4.7-2.162,7.073-3.184,1-.428,2-.874,3.011-1.291,3.317-1.369,6.659-2.682,10.054-3.892l-19.24,58.883L195.327,89.847c.4-.325.79-.668,1.192-.985Zm-19.933,17.7c2.8-2.8,5.6-5.412,8.379-7.925l54.906,27.607,24.6,39.79L202.757,287.154l-34.766-4.818-55.249-47.549a223,223,0,0,1,63.842-128.224Zm-59.17,214.663c-.1-.376-.21-.745-.3-1.122-.229-.919-.428-1.852-.638-2.771q-.9-3.857-1.671-7.733-.327-1.66-.631-3.328c-.48-2.638-.9-5.291-1.291-7.94-.125-.874-.277-1.741-.391-2.612q-.692-5.219-1.144-10.463c-.063-.719-.089-1.439-.148-2.151-.21-2.8-.376-5.615-.48-8.43-.041-1.136-.07-2.28-.1-3.424q-.089-3.807-.037-7.626c.011-1.059.011-2.121.037-3.18.089-3.512.24-7.025.491-10.548l44.6,38.385Zm3.815,13.227,46.011-39.58,36.13,5.01,98.482,98.482.5,30.988-42.159,48.974a223.309,223.309,0,0,1-83.606-52.888,225.921,225.921,0,0,1-55.352-90.981ZM366.616,489.4l-51.751-60.149-.48-29.73L435.95,337.579l41.465,26.2L503.909,416.5c-2.771,3.077-5.586,6.1-8.438,8.951A223.3,223.3,0,0,1,366.615,489.4Z" transform="translate(619.998 433.97) rotate(-90)" fill="#fff" stroke="#4791ff" stroke-width="10.5" opacity="0.9"/>
    </g>
    <g id="Группа_масок_2" data-name="Группа масок 2" clip-path="url(#clip-path-2)">
      <path id="Контур_428" data-name="Контур 428" d="M229.866,291.9a131.6,131.6,0,1,0-50.528-9.989,131.943,131.943,0,0,0,50.528,9.989Zm85.882-46.071A120.888,120.888,0,0,1,238.589,281,113.748,113.748,0,0,1,350.918,168.675a120.911,120.911,0,0,1-35.17,77.159Zm35.47-87.709A124.273,124.273,0,0,0,228.035,281.305,121.15,121.15,0,0,1,108.517,161.741c.732.014,1.462.08,2.195.08l0,0a120.475,120.475,0,0,0,84.6-36.432A120.111,120.111,0,0,0,231.7,38.6,121.143,121.143,0,0,1,351.218,158.118ZM143.99,74.075a120.891,120.891,0,0,1,77.159-35.17,109.583,109.583,0,0,1-33.307,79.02,109.583,109.583,0,0,1-79.02,33.307,120.9,120.9,0,0,1,35.17-77.159Z" transform="matrix(0.966, -0.259, 0.259, 0.966, -84.217, 787.917)" fill="#fff" stroke="#4791ff" stroke-width="8" opacity="0.9"/>
    </g>
  </g>
</svg>
