<svg width="49" height="50" viewBox="0 0 49 50" fill="none" xmlns="http://www.w3.org/2000/svg">
<path d="M10.9564 12.8761C10.8668 12.8537 10.7772 12.8088 10.71 12.764C10.6428 12.7192 10.5756 12.652 10.5307 12.5623C10.4859 12.4727 10.4635 12.3831 10.4411 12.271C10.4187 12.159 10.4187 12.0469 10.4411 11.9573C10.4635 11.8676 10.4859 11.778 10.5531 11.7108C10.598 11.6435 10.6652 11.5763 10.7548 11.5315C10.8444 11.4867 10.934 11.4419 11.0461 11.4419C11.1581 11.4194 11.2477 11.4194 11.3373 11.4419C11.4269 11.4643 11.5166 11.5091 11.5838 11.5539C11.651 11.5987 11.7182 11.6884 11.763 11.7556C11.8078 11.8452 11.8302 11.9349 11.8526 12.0469C11.875 12.159 11.875 12.271 11.8526 12.3606C11.8302 12.4503 11.8078 12.5399 11.763 12.6072C11.7182 12.6744 11.651 12.7416 11.5614 12.7864C11.4718 12.8312 11.3821 12.8537 11.2701 12.8761C11.1357 12.8985 11.0461 12.8985 10.9564 12.8761ZM11.4718 12.4727C11.5166 12.3831 11.539 12.2486 11.5166 12.1141C11.4942 11.9573 11.4494 11.8452 11.3597 11.778C11.2925 11.7108 11.1805 11.666 11.0461 11.6884C10.9116 11.7108 10.822 11.7556 10.7772 11.8676C10.7324 11.9573 10.71 12.0917 10.7324 12.2262C10.7548 12.3831 10.7996 12.4951 10.8892 12.5623C10.9564 12.6296 11.0685 12.652 11.1805 12.652C11.2925 12.652 11.4269 12.5623 11.4718 12.4727Z" fill="#04032D"/>
<path d="M12.2108 11.3076C12.2108 11.5093 12.2108 11.5989 12.2108 11.8006C12.0987 11.823 12.0539 11.823 11.9419 11.8454C11.9643 11.6438 11.9867 11.5317 12.0091 11.33C12.0987 11.33 12.1435 11.3076 12.2108 11.3076Z" fill="#04032D"/>
<path d="M13.1294 11.4417C12.8382 11.4865 12.7038 11.4865 12.4125 11.5314C12.3901 11.4417 12.3901 11.3745 12.3677 11.2848C12.7934 11.2176 13.0174 11.1952 13.4431 11.1504C13.4431 11.24 13.4655 11.2848 13.4655 11.3745C13.2191 11.7779 13.107 11.9795 12.8606 12.3829C13.1519 12.3381 13.3087 12.3157 13.6224 12.2933C13.6224 12.4053 13.6224 12.4501 13.6224 12.5398C13.1967 12.5846 12.9726 12.6294 12.5469 12.6742C12.5245 12.5846 12.5245 12.5398 12.5245 12.4726C12.771 12.0468 12.883 11.8451 13.1294 11.4417Z" fill="#04032D"/>
<path d="M14.2052 11.0385C14.3172 11.0161 14.4068 11.0161 14.4741 11.0385C14.5413 11.0609 14.6085 11.0609 14.6533 11.1058C14.6981 11.1282 14.7205 11.173 14.7429 11.2178C14.7653 11.2626 14.7877 11.3075 14.7877 11.3523C14.7877 11.3971 14.7877 11.4643 14.7653 11.5091C14.7429 11.554 14.6981 11.5988 14.6309 11.6436C14.6757 11.666 14.7205 11.6884 14.7429 11.7108C14.7653 11.7332 14.7877 11.7556 14.8101 11.7781C14.8325 11.8005 14.8325 11.8229 14.855 11.8677C14.855 11.8901 14.8774 11.9349 14.8774 11.9573C14.8774 12.0246 14.8774 12.0694 14.8774 12.1366C14.855 12.1814 14.8325 12.2487 14.8101 12.2711C14.7653 12.3159 14.7205 12.3383 14.6533 12.3831C14.5861 12.4055 14.4965 12.4279 14.4068 12.4503C14.1828 12.4727 14.0708 12.4952 13.8467 12.5176C13.7795 11.9573 13.7347 11.6884 13.6675 11.1282C13.8915 11.0834 13.9812 11.0834 14.2052 11.0385ZM14.4517 11.5315C14.4741 11.5091 14.4965 11.4643 14.4741 11.3971C14.4741 11.3299 14.4517 11.3075 14.4068 11.285C14.362 11.2626 14.2948 11.2626 14.2052 11.2626C14.1156 11.2626 14.0708 11.285 13.9812 11.285C14.0036 11.4195 14.0036 11.4867 14.026 11.5988C14.138 11.5764 14.1828 11.5764 14.2948 11.5764C14.3844 11.5764 14.4293 11.5764 14.4517 11.5315ZM14.4741 12.1814C14.4965 12.159 14.5413 12.159 14.5413 12.1366C14.5637 12.1142 14.5637 12.0918 14.5861 12.0694C14.5861 12.047 14.5861 12.0246 14.5861 11.9797C14.5861 11.9125 14.5637 11.8677 14.5189 11.8453C14.4741 11.8229 14.4293 11.8005 14.3396 11.8229C14.2276 11.8453 14.1604 11.8453 14.0484 11.8453C14.0708 12.0021 14.0708 12.0694 14.0932 12.2262C14.2052 12.2038 14.25 12.2038 14.3396 12.2038C14.4068 12.2038 14.4517 12.2038 14.4741 12.1814Z" fill="#04032D"/>
<path d="M15.9975 10.8594C15.9975 10.949 16.0199 11.0162 16.0199 11.1059C15.751 11.1283 15.5942 11.1507 15.3253 11.1731C15.3477 11.2852 15.3477 11.3524 15.3477 11.4868C15.6166 11.4644 15.7286 11.442 15.9975 11.4196C15.9975 11.5093 16.0199 11.5765 16.0199 11.6661C15.751 11.6885 15.639 11.7109 15.3701 11.7333C15.3925 11.8678 15.3926 11.935 15.415 12.0695C15.7062 12.0471 15.8631 12.0247 16.1543 12.0023C16.1543 12.0919 16.1543 12.1591 16.1543 12.2488C15.751 12.2936 15.5494 12.316 15.1461 12.3608C15.0789 11.8006 15.0565 11.5317 14.9893 10.9714C15.3925 10.9266 15.5942 10.9042 15.9975 10.8594Z" fill="#04032D"/>
<path d="M16.5802 10.8143C16.6026 11.0384 16.6026 11.1504 16.625 11.3745C16.8267 11.128 16.9163 11.016 17.1179 10.7695C17.2524 10.7695 17.3196 10.7471 17.454 10.7471C17.2748 10.9712 17.1852 11.0832 17.0059 11.3073C17.2524 11.6435 17.3644 11.8003 17.6109 12.1365C17.4764 12.1365 17.4092 12.1589 17.2748 12.1589C17.0955 11.89 17.0059 11.7779 16.8043 11.509C16.7371 11.5762 16.7146 11.621 16.6474 11.6883C16.6698 11.89 16.6698 12.002 16.6922 12.2037C16.5802 12.2037 16.513 12.2261 16.3786 12.2261C16.3338 11.6659 16.3114 11.3969 16.2441 10.8367C16.3786 10.8143 16.4458 10.8143 16.5802 10.8143Z" fill="#04032D"/>
<path d="M17.969 10.7026C18.0138 11.2629 18.0362 11.5318 18.081 12.092C17.969 12.092 17.9018 12.1144 17.7898 12.1144C17.7449 11.5542 17.7225 11.2853 17.6777 10.725C17.7674 10.7026 17.8346 10.7026 17.969 10.7026Z" fill="#04032D"/>
<path d="M18.6414 11.778C18.6862 11.8229 18.7758 11.8229 18.8655 11.8229C18.9103 11.8229 18.9551 11.8229 18.9775 11.8004C18.9999 11.778 19.0447 11.778 19.0447 11.7556C19.0671 11.7332 19.0671 11.7108 19.0895 11.6884C19.0895 11.666 19.0895 11.6436 19.0895 11.6212C19.0895 11.5764 19.0671 11.5539 19.0447 11.5315C19.0223 11.5091 18.9551 11.4867 18.8879 11.4643C18.8206 11.4643 18.7758 11.4419 18.6862 11.4419C18.619 11.4419 18.5518 11.4195 18.4846 11.3971C18.4174 11.3747 18.3725 11.3523 18.3277 11.3298C18.2829 11.3074 18.2605 11.2626 18.2381 11.2178C18.2157 11.173 18.1933 11.1058 18.1933 11.0385C18.1933 10.9713 18.1933 10.9041 18.2157 10.8592C18.2381 10.8144 18.2829 10.7696 18.3277 10.7248C18.3725 10.68 18.4398 10.6576 18.507 10.6352C18.5742 10.6127 18.6638 10.5903 18.731 10.5903C18.8431 10.5903 18.9327 10.5903 18.9999 10.6127C19.0671 10.6352 19.1343 10.6576 19.1791 10.7024C19.2239 10.7472 19.2687 10.792 19.2912 10.8368C19.3136 10.8817 19.336 10.9489 19.336 10.9937C19.2239 11.0161 19.1567 11.0161 19.0447 11.0385C19.0223 10.9713 18.9999 10.9041 18.9551 10.8817C18.9103 10.8592 18.8431 10.8368 18.7534 10.8368C18.7086 10.8368 18.6638 10.8368 18.619 10.8592C18.5966 10.8592 18.5518 10.8817 18.5294 10.9041C18.507 10.9265 18.507 10.9265 18.4846 10.9489C18.4846 10.9713 18.4846 10.9937 18.4846 11.0161C18.4846 11.0609 18.507 11.1058 18.5294 11.1282C18.5518 11.1506 18.619 11.173 18.6862 11.173C18.7758 11.173 18.7982 11.1954 18.8879 11.1954C19.0447 11.2178 19.1567 11.2626 19.2463 11.3298C19.3136 11.3971 19.3584 11.4867 19.3808 11.6212C19.3808 11.6884 19.3808 11.7332 19.3584 11.8004C19.336 11.8453 19.3136 11.8901 19.2687 11.9349C19.2239 11.9797 19.1567 12.0021 19.0895 12.0245C19.0223 12.047 18.9327 12.0694 18.8431 12.0694C18.6414 12.0918 18.4846 12.047 18.3725 11.9797C18.2605 11.9125 18.1933 11.778 18.1709 11.6212C18.3053 11.6212 18.3501 11.5988 18.4846 11.5988C18.5518 11.6884 18.5966 11.7332 18.6414 11.778Z" fill="#04032D"/>
<path d="M19.4702 10.8591C19.4702 10.7471 19.4702 10.7023 19.4478 10.6126C19.9183 10.5902 20.1647 10.5678 20.6352 10.5454C20.6352 10.6575 20.6352 10.7023 20.6352 10.7919C20.456 10.7919 20.3664 10.8143 20.1871 10.8143C20.2095 11.2625 20.2095 11.509 20.2319 11.9572C20.1199 11.9572 20.0527 11.9572 19.9183 11.9796C19.8959 11.5314 19.8734 11.2849 19.851 10.8367C19.739 10.8367 19.6494 10.8367 19.4702 10.8591Z" fill="#04032D"/>
<path d="M21.1952 11.8902C21.1056 11.8678 21.0383 11.823 20.9711 11.7558C20.9039 11.6885 20.8591 11.6213 20.8143 11.5317C20.7695 11.442 20.7695 11.3524 20.7471 11.2179C20.7471 11.1059 20.7471 10.9938 20.7919 10.9042C20.8143 10.8146 20.8591 10.7249 20.9263 10.6577C20.9935 10.5905 21.0607 10.5456 21.1504 10.5008C21.24 10.456 21.3296 10.4336 21.4416 10.4336C21.5537 10.4336 21.6433 10.4336 21.7329 10.4784C21.8225 10.5008 21.8897 10.5456 21.9569 10.6129C22.0242 10.6801 22.069 10.7473 22.0914 10.837C22.1362 10.9266 22.1362 11.0387 22.1362 11.1507C22.1362 11.2627 22.1362 11.3748 22.0914 11.4644C22.069 11.5541 22.0242 11.6437 21.9569 11.6885C21.8897 11.7558 21.8225 11.8006 21.7553 11.8454C21.6657 11.8902 21.5761 11.9126 21.464 11.9126C21.3744 11.935 21.2848 11.935 21.1952 11.8902ZM21.7553 11.5541C21.8225 11.4644 21.8449 11.3524 21.8449 11.1955C21.8449 11.0387 21.8001 10.9266 21.7329 10.837C21.6657 10.7473 21.5761 10.7249 21.4416 10.7249C21.3072 10.7249 21.2176 10.7697 21.1504 10.8594C21.0832 10.949 21.0607 11.0611 21.0607 11.2179C21.0607 11.3748 21.1056 11.4868 21.1728 11.5765C21.24 11.6661 21.3296 11.6885 21.464 11.6885C21.6209 11.6885 21.7105 11.6437 21.7553 11.5541Z" fill="#04032D"/>
<path d="M22.6741 10.4785C22.9206 10.837 23.055 11.0163 23.3015 11.3748C23.3015 11.0163 23.3015 10.8146 23.2791 10.4561C23.3911 10.4561 23.4583 10.4561 23.5703 10.4561C23.5703 11.0163 23.5703 11.2852 23.5927 11.8454C23.4807 11.8454 23.4359 11.8454 23.3239 11.8454C23.0774 11.4869 22.9654 11.3076 22.6965 10.9491C22.6965 11.3076 22.6965 11.4869 22.719 11.8679C22.6069 11.8679 22.5397 11.8679 22.4277 11.8679C22.4053 11.3076 22.4053 11.0387 22.4053 10.4785C22.5173 10.4785 22.5621 10.4785 22.6741 10.4785Z" fill="#04032D"/>
<path d="M24.8698 10.4561C24.9818 10.4561 25.0715 10.4785 25.1611 10.5009C25.2283 10.5233 25.2955 10.5681 25.3403 10.6129C25.3851 10.6577 25.4075 10.7026 25.4299 10.7474C25.4523 10.7922 25.4523 10.837 25.4523 10.9042C25.4523 10.9939 25.4299 11.0611 25.4075 11.1283C25.3627 11.1956 25.3179 11.2404 25.2283 11.2852C25.3403 11.5317 25.4075 11.6438 25.5196 11.8903C25.3851 11.8903 25.3179 11.8903 25.1835 11.8903C25.0939 11.6886 25.0491 11.5765 24.937 11.3748C24.825 11.3748 24.7578 11.3748 24.6458 11.3748C24.6458 11.5765 24.6458 11.6886 24.6458 11.8903C24.5337 11.8903 24.4665 11.8903 24.3545 11.8903C24.3545 11.33 24.3545 11.0611 24.3545 10.5009C24.5561 10.4561 24.6458 10.4561 24.8698 10.4561ZM25.0042 11.0835C25.0266 11.0835 25.0715 11.0611 25.0715 11.0387C25.0939 11.0163 25.0939 10.9939 25.1163 10.9715C25.1163 10.9491 25.1163 10.9267 25.1163 10.8818C25.1163 10.8594 25.1163 10.837 25.0939 10.8146C25.0939 10.7922 25.0715 10.7698 25.0491 10.7474C25.0266 10.725 25.0042 10.725 24.9594 10.7026C24.9146 10.7026 24.8698 10.6802 24.825 10.6802C24.7354 10.6802 24.6906 10.6802 24.6234 10.6802C24.6234 10.837 24.6234 10.9042 24.6234 11.0611C24.713 11.0611 24.7578 11.0611 24.8698 11.0611C24.937 11.0835 24.9594 11.0835 25.0042 11.0835Z" fill="#04032D"/>
<path d="M26.685 10.4785C26.685 10.5681 26.685 10.6353 26.685 10.725C26.4161 10.725 26.2593 10.725 25.9904 10.7026C25.9904 10.8146 25.9904 10.8818 25.9904 11.0163C26.2593 11.0163 26.3713 11.0163 26.6402 11.0387C26.6402 11.1283 26.6402 11.1956 26.6402 11.2852C26.3713 11.2852 26.2593 11.2852 25.9904 11.2628C25.9904 11.3973 25.9904 11.4645 25.9904 11.5989C26.2817 11.5989 26.4385 11.5989 26.7298 11.6214C26.7074 11.711 26.7074 11.7782 26.685 11.8679C26.2817 11.8679 26.08 11.8454 25.6768 11.8454C25.6768 11.2852 25.6992 11.0163 25.6992 10.4561C26.1025 10.4785 26.3041 10.4785 26.685 10.4785Z" fill="#04032D"/>
<path d="M27.2001 11.6212C27.2449 11.6661 27.3345 11.6885 27.4242 11.6885C27.469 11.6885 27.5138 11.6885 27.5362 11.6885C27.5586 11.6885 27.6034 11.6661 27.6258 11.6437C27.6482 11.6212 27.6706 11.5988 27.6706 11.5764C27.6706 11.554 27.693 11.5316 27.693 11.5092C27.693 11.4644 27.6706 11.442 27.6482 11.3972C27.6258 11.3747 27.5586 11.3299 27.4914 11.3299C27.4242 11.3075 27.3794 11.3075 27.3121 11.2851C27.2449 11.2627 27.1777 11.2403 27.1105 11.2179C27.0433 11.1955 26.9985 11.1731 26.9761 11.1282C26.9313 11.0834 26.9088 11.061 26.8864 10.9938C26.864 10.949 26.864 10.8817 26.864 10.8145C26.864 10.7473 26.8864 10.68 26.9088 10.6352C26.9313 10.5904 26.9761 10.5456 27.0209 10.5008C27.0657 10.4784 27.1329 10.4335 27.2001 10.4335C27.2673 10.4111 27.357 10.4111 27.4242 10.4111C27.5362 10.4111 27.6258 10.4335 27.693 10.456C27.7602 10.4784 27.8275 10.5232 27.8723 10.5456C27.9171 10.5904 27.9395 10.6352 27.9619 10.68C27.9843 10.7249 27.9843 10.7921 28.0067 10.8369C27.8947 10.8369 27.8275 10.8593 27.7154 10.8593C27.693 10.7921 27.6706 10.7249 27.6258 10.68C27.581 10.6352 27.5138 10.6352 27.4242 10.6128C27.3794 10.6128 27.3345 10.6128 27.2897 10.6128C27.2449 10.6128 27.2225 10.6352 27.2001 10.6352C27.1777 10.6576 27.1553 10.6576 27.1553 10.68C27.1553 10.7025 27.1329 10.7249 27.1329 10.7473C27.1329 10.7921 27.1553 10.8369 27.1777 10.8593C27.2001 10.8817 27.2673 10.9041 27.3345 10.9266C27.4242 10.949 27.4466 10.949 27.5362 10.9714C27.693 11.0162 27.8051 11.061 27.8723 11.1282C27.9395 11.1955 27.9843 11.3075 27.9619 11.4196C27.9619 11.4868 27.9395 11.5316 27.9171 11.5764C27.8947 11.6212 27.8499 11.6661 27.8051 11.7109C27.7602 11.7557 27.693 11.7781 27.6258 11.8005C27.5586 11.8229 27.469 11.8229 27.3794 11.8229C27.1777 11.8229 27.0209 11.7781 26.9313 11.6885C26.8192 11.5988 26.7744 11.4868 26.7744 11.3075C26.9088 11.3075 26.9537 11.3075 27.0881 11.3075C27.1329 11.5316 27.1553 11.5764 27.2001 11.6212Z" fill="#04032D"/>
<path d="M28.7911 10.5678C28.9031 10.5678 28.9927 10.5902 29.0599 10.6126C29.1272 10.635 29.1944 10.6798 29.2392 10.7246C29.284 10.7695 29.3064 10.8143 29.3288 10.8591C29.3512 10.9039 29.3512 10.9711 29.3512 11.016C29.3512 11.0832 29.3288 11.128 29.3064 11.1952C29.284 11.2401 29.2616 11.3073 29.2168 11.3297C29.172 11.3745 29.1048 11.3969 29.0375 11.4193C28.9703 11.4417 28.8807 11.4417 28.7687 11.4417C28.6791 11.4417 28.6343 11.4417 28.5446 11.4417C28.5446 11.6434 28.5222 11.7331 28.5222 11.9348C28.4102 11.9348 28.343 11.9348 28.231 11.9123C28.2534 11.3521 28.2758 11.0832 28.2982 10.5229C28.4774 10.5454 28.5894 10.5454 28.7911 10.5678ZM28.9031 11.1952C28.9479 11.1952 28.9703 11.1728 28.9927 11.1504C29.0151 11.128 29.0375 11.1056 29.0375 11.0832C29.0375 11.0608 29.0599 11.0384 29.0599 10.9936C29.0599 10.9711 29.0599 10.9263 29.0599 10.9039C29.0599 10.8815 29.0375 10.8591 29.0151 10.8367C28.9927 10.8143 28.9703 10.8143 28.9255 10.7919C28.8807 10.7919 28.8359 10.7695 28.7911 10.7695C28.7015 10.7695 28.6567 10.7695 28.567 10.7695C28.567 10.9263 28.5446 11.016 28.5446 11.1952C28.6343 11.1952 28.6791 11.1952 28.7687 11.1952C28.8135 11.2176 28.8583 11.2176 28.9031 11.1952Z" fill="#04032D"/>
<path d="M29.8662 10.6127C29.8438 10.9489 29.8438 11.1058 29.8214 11.4419C29.8214 11.5539 29.8214 11.6436 29.8662 11.7108C29.911 11.778 29.9782 11.8004 30.0678 11.8004C30.1799 11.8004 30.2471 11.778 30.2919 11.7332C30.3367 11.6884 30.3591 11.5988 30.3815 11.4643C30.4039 11.1282 30.4039 10.9713 30.4263 10.6352C30.5383 10.6352 30.6056 10.6576 30.74 10.6576C30.7176 10.9937 30.6952 11.1506 30.6728 11.4867C30.6728 11.5988 30.6504 11.6884 30.6056 11.7556C30.5831 11.8229 30.5383 11.8901 30.4711 11.9349C30.4263 11.9797 30.3591 12.0021 30.2695 12.0245C30.2023 12.047 30.1126 12.047 30.023 12.047C29.9334 12.047 29.8438 12.0245 29.7766 12.0021C29.7094 11.9797 29.6421 11.9349 29.5973 11.8901C29.5525 11.8453 29.5077 11.778 29.4853 11.6884C29.4629 11.6212 29.4629 11.5091 29.4629 11.4195C29.4853 11.0833 29.4853 10.9265 29.5077 10.5903C29.6869 10.6127 29.7318 10.6127 29.8662 10.6127Z" fill="#04032D"/>
<path d="M31.5467 10.725C31.6587 10.725 31.7483 10.7475 31.8155 10.7699C31.8827 10.7923 31.9276 10.8371 31.9724 10.8595C32.0172 10.9043 32.0396 10.9491 32.0396 10.994C32.062 11.0388 32.062 11.0836 32.0396 11.1508C32.0396 11.1956 32.0172 11.2629 31.9948 11.3077C31.9724 11.3525 31.9051 11.3973 31.8379 11.4197C31.8827 11.4422 31.9051 11.4646 31.95 11.487C31.9724 11.5094 31.9948 11.5318 32.0172 11.5766C32.0396 11.599 32.0396 11.6438 32.0396 11.6662C32.0396 11.6887 32.0396 11.7335 32.0396 11.7559C32.0396 11.8231 32.0172 11.8679 31.9948 11.9128C31.9724 11.9576 31.9276 12.0024 31.8827 12.0472C31.8379 12.092 31.7707 12.1144 31.7035 12.1144C31.6363 12.1368 31.5467 12.1368 31.4346 12.1368C31.2106 12.1144 31.0986 12.1144 30.8745 12.092C30.9193 11.5318 30.9417 11.2629 30.9865 10.7026C31.233 10.7026 31.345 10.725 31.5467 10.725ZM31.7035 11.2629C31.7259 11.2405 31.7483 11.1956 31.7483 11.1508C31.7483 11.0836 31.7259 11.0612 31.7035 11.0164C31.6587 10.994 31.5915 10.9716 31.5019 10.9716C31.4122 10.9716 31.3674 10.9716 31.2778 10.9491C31.2778 11.0836 31.2554 11.1508 31.2554 11.2629C31.3674 11.2629 31.4122 11.2853 31.5243 11.2853C31.6139 11.2853 31.6811 11.2853 31.7035 11.2629ZM31.6139 11.8903C31.6587 11.8903 31.6811 11.8679 31.7035 11.8679C31.7259 11.8455 31.7483 11.8231 31.7483 11.8007C31.7483 11.7783 31.7707 11.7559 31.7707 11.7111C31.7707 11.6438 31.7707 11.599 31.7259 11.5766C31.7035 11.5318 31.6363 11.5318 31.5467 11.5094C31.4346 11.5094 31.3674 11.487 31.2554 11.487C31.233 11.6438 31.233 11.7111 31.233 11.8679C31.345 11.8679 31.3898 11.8903 31.4794 11.8903C31.5243 11.9128 31.5691 11.9128 31.6139 11.8903Z" fill="#04032D"/>
<path d="M32.6444 10.8369C32.5996 11.2851 32.5772 11.5316 32.5324 11.9797C32.8012 12.0022 32.9357 12.0246 33.2269 12.047C33.2045 12.1366 33.1821 12.2038 33.1597 12.2935C32.7788 12.2487 32.5772 12.2487 32.1963 12.2038C32.2411 11.6436 32.2635 11.3747 32.3083 10.8145C32.4652 10.8145 32.5324 10.8145 32.6444 10.8369Z" fill="#04032D"/>
<path d="M33.8544 10.9492C33.7871 11.5094 33.7647 11.7783 33.6975 12.3386C33.5855 12.3162 33.5183 12.3161 33.4062 12.3161C33.4735 11.7559 33.4959 11.487 33.5407 10.9268C33.6751 10.9268 33.7423 10.9268 33.8544 10.9492Z" fill="#04032D"/>
<path d="M34.4592 11.0164C34.4368 11.2405 34.4144 11.3526 34.392 11.5767C34.6385 11.375 34.7505 11.2853 34.9969 11.0837C35.1314 11.1061 35.1986 11.1061 35.333 11.1285C35.109 11.3078 34.9969 11.3974 34.7953 11.5991C34.9745 11.98 35.0642 12.1593 35.221 12.5403C35.0866 12.5179 35.0194 12.5179 34.8849 12.4955C34.7505 12.2041 34.6833 12.0697 34.5488 11.7784C34.4816 11.8456 34.4368 11.868 34.3472 11.9352C34.3248 12.1369 34.3024 12.249 34.28 12.4506C34.168 12.4282 34.1007 12.4282 33.9663 12.4282C34.0335 11.868 34.0559 11.5991 34.1231 11.0388C34.28 10.994 34.3472 10.994 34.4592 11.0164Z" fill="#04032D"/>
<path d="M36.3188 11.2404C36.4756 11.823 36.5428 12.1143 36.6773 12.697C36.5428 12.6746 36.4756 12.6746 36.3636 12.6522C36.3412 12.5177 36.3188 12.4505 36.2964 12.316C36.0947 12.2936 35.9827 12.2712 35.7811 12.2488C35.7138 12.3609 35.6914 12.4281 35.6242 12.5625C35.4898 12.5401 35.445 12.5401 35.3105 12.5177C35.6018 11.9799 35.7362 11.7334 36.0275 11.1956C36.1395 11.218 36.2068 11.218 36.3188 11.2404ZM36.1171 11.5541C36.0275 11.7334 35.9827 11.8454 35.8707 12.0247C36.0051 12.0471 36.0723 12.0471 36.2292 12.0695C36.1843 11.8678 36.1619 11.7558 36.1171 11.5541Z" fill="#04032D"/>
<path d="M37.1479 12.4954C37.1927 12.5402 37.2599 12.5626 37.3719 12.585C37.4167 12.585 37.4616 12.585 37.484 12.585C37.5288 12.585 37.5512 12.5626 37.5736 12.5626C37.596 12.5402 37.6184 12.5402 37.6184 12.5178C37.6408 12.4954 37.6408 12.473 37.6408 12.4506C37.6408 12.4057 37.6408 12.3833 37.6184 12.3385C37.596 12.2937 37.5512 12.2713 37.4616 12.2489C37.3943 12.2265 37.3495 12.2041 37.2823 12.1816C37.2151 12.1592 37.1479 12.1368 37.1031 12.092C37.0583 12.0696 37.0134 12.0248 36.9686 11.98C36.9238 11.9351 36.9014 11.8903 36.9014 11.8455C36.879 11.8007 36.879 11.7334 36.9014 11.6662C36.9014 11.599 36.9238 11.5542 36.9686 11.4869C37.0134 11.4421 37.0583 11.3973 37.1031 11.3749C37.1479 11.3525 37.2151 11.3301 37.2823 11.3301C37.3495 11.3301 37.4392 11.3301 37.5064 11.3301C37.6184 11.3525 37.708 11.3749 37.7752 11.3973C37.8424 11.4421 37.8873 11.4645 37.9321 11.5094C37.9769 11.5542 37.9993 11.599 37.9993 11.6662C38.0217 11.711 38.0217 11.7783 38.0217 11.8231C37.9097 11.8231 37.8424 11.8231 37.7304 11.8231C37.7304 11.7559 37.708 11.6886 37.6632 11.6438C37.6184 11.599 37.5736 11.5766 37.484 11.5542C37.4392 11.5542 37.3943 11.5542 37.3495 11.5542C37.3047 11.5542 37.2823 11.5542 37.2599 11.5766C37.2375 11.5766 37.2151 11.599 37.2151 11.6214C37.2151 11.6438 37.1927 11.6662 37.1927 11.6662C37.1927 11.711 37.1927 11.7559 37.2151 11.7783C37.2375 11.8007 37.2823 11.8455 37.3719 11.8679C37.4392 11.8903 37.484 11.9127 37.5736 11.9351C37.7304 11.98 37.8424 12.0472 37.8873 12.1368C37.9545 12.2041 37.9769 12.3161 37.9545 12.4506C37.9545 12.5178 37.9321 12.5626 37.8873 12.6074C37.8648 12.6522 37.82 12.6971 37.7528 12.7195C37.708 12.7419 37.6408 12.7643 37.5736 12.7867C37.5064 12.7867 37.4167 12.7867 37.3271 12.7867C37.1255 12.7643 36.991 12.6971 36.9014 12.6074C36.8118 12.5178 36.767 12.3833 36.7894 12.2265C36.9014 12.2489 36.9686 12.2489 37.1031 12.2713C37.1031 12.3833 37.1031 12.4506 37.1479 12.4954Z" fill="#04032D"/>
<path d="M38.6491 11.5766C38.5595 12.1368 38.5147 12.4057 38.4251 12.9659C38.313 12.9435 38.2458 12.9435 38.1338 12.9211C38.2234 12.3609 38.2682 12.092 38.3578 11.5317C38.4699 11.5541 38.5147 11.5541 38.6491 11.5766Z" fill="#04032D"/>
<path d="M2.28555 17.1118C2.19593 17.1118 2.1063 17.067 2.03909 17.0222C1.97187 16.9773 1.90466 16.9101 1.83744 16.8429C1.79263 16.7532 1.74782 16.6636 1.70301 16.5516C1.68061 16.4395 1.6582 16.3499 1.6582 16.2378C1.6582 16.1482 1.68061 16.0585 1.72542 15.9689C1.77023 15.8793 1.81504 15.8345 1.90466 15.7672C1.97188 15.7224 2.0615 15.6776 2.17352 15.6328C2.28555 15.6104 2.37517 15.5879 2.46479 15.6104C2.55441 15.6328 2.64403 15.6552 2.71124 15.7C2.77846 15.7448 2.84567 15.812 2.89048 15.8793C2.93529 15.9689 2.98011 16.0585 3.00251 16.1706C3.02492 16.2826 3.04732 16.3723 3.02492 16.4843C3.02492 16.574 3.00251 16.6636 2.9577 16.7308C2.91289 16.7981 2.86808 16.8653 2.77846 16.9325C2.68884 16.9997 2.62162 17.0222 2.5096 17.0446C2.46479 17.1118 2.37517 17.1342 2.28555 17.1118ZM2.73365 16.6636C2.77846 16.574 2.77846 16.4395 2.73365 16.2826C2.68884 16.1258 2.64403 16.0361 2.55441 15.9689C2.46479 15.9017 2.37517 15.8793 2.24074 15.9241C2.12871 15.9465 2.03909 16.0137 1.99428 16.1258C1.94947 16.2154 1.94947 16.3499 1.99428 16.4843C2.03909 16.6412 2.10631 16.7308 2.17352 16.7981C2.26314 16.8653 2.35276 16.8877 2.48719 16.8429C2.62162 16.8205 2.71124 16.7532 2.73365 16.6636Z" fill="#04032D"/>
<path d="M3.40596 15.4084C3.51798 15.8566 3.56279 16.0807 3.67482 16.5289C3.94368 16.4617 4.07811 16.4393 4.32457 16.3721C4.32457 16.4617 4.34697 16.5289 4.34697 16.6186C3.98849 16.7082 3.80925 16.753 3.42836 16.8427C3.29393 16.3048 3.22672 16.0359 3.09229 15.4981C3.22672 15.4309 3.29393 15.4309 3.40596 15.4084Z" fill="#04032D"/>
<path d="M4.54854 15.1169C4.68297 15.6548 4.75018 15.9237 4.86221 16.4839C4.75018 16.5063 4.68297 16.5287 4.57094 16.5512C4.43651 16.0133 4.36929 15.7444 4.23486 15.1842C4.36929 15.1618 4.43651 15.1394 4.54854 15.1169Z" fill="#04032D"/>
<path d="M4.70508 15.0724C4.83951 15.05 4.90672 15.0276 5.04115 15.0052C5.2204 15.2068 5.31001 15.2965 5.46685 15.4982C5.53407 15.2517 5.57888 15.1172 5.64609 14.8707C5.78052 14.8483 5.82533 14.8259 5.95976 14.8035C5.84774 15.162 5.78052 15.3413 5.6685 15.7223C5.71331 15.9464 5.73571 16.0584 5.80293 16.2825C5.6909 16.3049 5.62369 16.3273 5.51166 16.3497C5.46685 16.1256 5.44445 16.0136 5.37723 15.7895C5.13078 15.4982 4.99634 15.3637 4.70508 15.0724Z" fill="#04032D"/>
<path d="M6.45302 14.9605C6.43061 14.8709 6.43061 14.8037 6.4082 14.714C6.85631 14.6244 7.10276 14.5796 7.55087 14.4675C7.57327 14.5572 7.57327 14.6244 7.59567 14.714C7.41643 14.7589 7.34922 14.7589 7.16998 14.8037C7.2596 15.2519 7.30441 15.476 7.39403 15.9241C7.282 15.9466 7.21479 15.969 7.10276 15.9914C7.01314 15.5432 6.96833 15.3191 6.87871 14.8709C6.69947 14.8933 6.63226 14.9157 6.45302 14.9605Z" fill="#04032D"/>
<path d="M8.22278 14.3328C8.53645 14.8482 8.69329 15.0947 9.00696 15.6101C8.87253 15.6325 8.82772 15.6549 8.69329 15.6773C8.62607 15.5653 8.58126 15.4981 8.51405 15.386C8.3124 15.4308 8.22278 15.4308 8.02114 15.4757C7.99873 15.6101 7.99873 15.6773 7.97632 15.8118C7.8643 15.8342 7.79708 15.8566 7.68506 15.879C7.77468 15.2964 7.84189 14.9826 7.93151 14.4C8.06594 14.3776 8.11075 14.3552 8.22278 14.3328ZM8.15556 14.6913C8.13316 14.893 8.11075 15.0051 8.08835 15.2067C8.22278 15.1843 8.28999 15.1619 8.42442 15.1395C8.3124 14.9602 8.24518 14.8706 8.15556 14.6913Z" fill="#04032D"/>
<path d="M9.02912 14.1985C9.00671 14.4002 9.00671 14.5122 8.98431 14.7139C8.89468 14.7363 8.84988 14.7363 8.78266 14.7587C8.78266 14.557 8.76025 14.4674 8.76025 14.2657C8.84987 14.2209 8.91709 14.1985 9.02912 14.1985Z" fill="#04032D"/>
<path d="M9.54468 14.0862C9.6343 14.5344 9.65671 14.7585 9.74633 15.2067C10.0152 15.1618 10.1496 15.1394 10.4185 15.0946C10.4185 15.2067 10.4185 15.2515 10.4185 15.3411C10.06 15.4083 9.85835 15.4308 9.49987 15.498C9.41025 14.9377 9.34304 14.6688 9.25342 14.131C9.36544 14.131 9.43266 14.1086 9.54468 14.0862Z" fill="#04032D"/>
<path d="M10.7097 13.907C10.7993 14.4672 10.8442 14.7361 10.9338 15.2964C10.8217 15.3188 10.7545 15.3188 10.6425 15.3412C10.5529 14.781 10.5081 14.512 10.4185 13.9518C10.5305 13.9294 10.5977 13.9294 10.7097 13.907Z" fill="#04032D"/>
<path d="M11.3595 13.7949C11.5611 14.1758 11.6731 14.3775 11.8748 14.7809C11.9644 14.3551 12.0092 14.131 12.0764 13.7052C12.2109 13.6828 12.2781 13.6828 12.4349 13.6604C12.5021 14.2206 12.5469 14.4896 12.6366 15.0498C12.5245 15.0722 12.4797 15.0722 12.3677 15.0946C12.3229 14.7361 12.2781 14.5344 12.2333 14.1758C12.166 14.5568 12.1212 14.7585 12.054 15.1394C11.9644 15.1618 11.9196 15.1618 11.83 15.1842C11.6507 14.8257 11.5611 14.6688 11.3595 14.3103C11.4267 14.6688 11.4491 14.8705 11.4939 15.2291C11.3819 15.2515 11.3371 15.2515 11.225 15.2739C11.1354 14.7136 11.0906 14.4447 11.001 13.8845C11.1354 13.8397 11.2026 13.8173 11.3595 13.7949Z" fill="#04032D"/>
<path d="M13.1073 14.6467C13.0849 14.8484 13.0849 14.9605 13.0625 15.1621C12.9729 15.1846 12.9281 15.1846 12.8608 15.1846C12.8608 14.9829 12.8608 14.8932 12.8608 14.6915C12.9505 14.6691 12.9953 14.6467 13.1073 14.6467Z" fill="#04032D"/>
<path d="M14.586 13.3691C14.6084 13.4588 14.6084 13.526 14.6084 13.6156C14.3619 13.6381 14.2275 13.6605 13.9586 13.6829C13.981 13.8173 13.981 13.8846 14.0034 14.019C14.2499 13.9966 14.3619 13.9742 14.6084 13.9518C14.6308 14.0414 14.6308 14.1087 14.6308 14.1983C14.3843 14.2207 14.2723 14.2431 14.0258 14.2655C14.0483 14.4896 14.0707 14.6017 14.0931 14.8258C13.981 14.8482 13.9138 14.8482 13.8018 14.8706C13.7346 14.3103 13.6898 14.0414 13.6226 13.4812C14.0259 13.4364 14.2051 13.414 14.586 13.3691Z" fill="#04032D"/>
<path d="M15.3924 13.2795C15.6612 13.8174 15.7957 14.0863 16.0645 14.6241C15.9301 14.6465 15.8853 14.6465 15.7509 14.6465C15.6836 14.5121 15.6612 14.4672 15.594 14.3328C15.3924 14.3552 15.3027 14.3552 15.1011 14.3776C15.0787 14.5121 15.0563 14.5793 15.0339 14.7138C14.9219 14.7362 14.8546 14.7362 14.7202 14.7586C14.8771 14.1759 14.9443 13.8846 15.1011 13.302C15.2131 13.302 15.2803 13.302 15.3924 13.2795ZM15.2803 13.6157C15.2355 13.8174 15.2131 13.9294 15.1683 14.1311C15.3027 14.1087 15.37 14.1087 15.5044 14.0863C15.4148 13.907 15.37 13.8174 15.2803 13.6157Z" fill="#04032D"/>
<path d="M16.3562 13.19C16.6251 13.5261 16.7595 13.7054 17.0284 14.0415C17.006 13.683 16.9835 13.5037 16.9387 13.1228C17.0508 13.1228 17.118 13.1003 17.23 13.1003C17.2748 13.6606 17.2972 13.9295 17.342 14.4897C17.23 14.4897 17.1852 14.5121 17.0732 14.5121C16.8043 14.176 16.6699 13.9967 16.401 13.6606C16.4458 14.0191 16.4458 14.1984 16.4906 14.557C16.3786 14.557 16.3114 14.5794 16.1994 14.5794C16.1546 14.0191 16.1098 13.7502 16.0649 13.19C16.1994 13.19 16.2666 13.19 16.3562 13.19Z" fill="#04032D"/>
<path d="M18.1481 13.033C18.305 13.414 18.3946 13.6157 18.5738 13.9967C18.6859 13.5933 18.7531 13.3916 18.8651 12.9882C18.9995 12.9882 19.0668 12.9658 19.1788 12.9658C18.9995 13.5261 18.9099 13.8174 18.7307 14.4C18.6187 14.4 18.5738 14.4224 18.4618 14.4224C18.2154 13.8846 18.0809 13.6157 17.8345 13.0779C17.9465 13.0555 18.0137 13.033 18.1481 13.033Z" fill="#04032D"/>
<path d="M19.8512 12.9209C20.0976 13.4587 20.2097 13.7501 20.4561 14.2879C20.3217 14.2879 20.2769 14.2879 20.1425 14.3103C20.0976 14.1758 20.0752 14.131 20.008 13.9966C19.8064 13.9966 19.7168 14.019 19.5151 14.019C19.4703 14.1534 19.4479 14.2207 19.4255 14.3551C19.3135 14.3551 19.2462 14.3551 19.1118 14.3775C19.2911 13.7949 19.3807 13.526 19.5599 12.9433C19.6719 12.9433 19.7392 12.9433 19.8512 12.9209ZM19.7168 13.257C19.6495 13.4587 19.6271 13.5708 19.5823 13.7725C19.7168 13.7725 19.784 13.7501 19.9184 13.7501C19.8288 13.5708 19.784 13.4587 19.7168 13.257Z" fill="#04032D"/>
<path d="M21.3073 12.8538C21.3297 13.414 21.3297 13.6829 21.3521 14.2432C21.2401 14.2432 21.1729 14.2432 21.0609 14.2656C21.0385 13.7053 21.0161 13.4364 20.9937 12.8762C21.1057 12.8762 21.1729 12.8762 21.3073 12.8538Z" fill="#04032D"/>
<path d="M21.8674 12.8312C22.1139 13.1898 22.2483 13.3691 22.4724 13.7276C22.4724 13.3691 22.45 13.1674 22.45 12.8088C22.562 12.8088 22.6292 12.8088 22.7412 12.8088C22.7636 13.3691 22.7636 13.638 22.7636 14.1982C22.6516 14.1982 22.6068 14.1982 22.4948 14.1982C22.2483 13.8397 22.1363 13.6604 21.8898 13.3018C21.8898 13.6604 21.9122 13.8397 21.9122 14.2206C21.8002 14.2206 21.733 14.2206 21.621 14.2206C21.5986 13.6604 21.5986 13.3915 21.5762 12.8312C21.6882 12.8537 21.7554 12.8537 21.8674 12.8312Z" fill="#04032D"/>
<path d="M23.3016 12.8088C23.548 13.1674 23.6601 13.3467 23.9065 13.7276C23.9065 13.3691 23.9065 13.1674 23.9065 12.8088C24.0185 12.8088 24.0858 12.8088 24.1978 12.8088C24.1978 13.3691 24.1978 13.638 24.1978 14.1982C24.0858 14.1982 24.0409 14.1982 23.9289 14.1982C23.6825 13.8397 23.5704 13.6604 23.324 13.3018C23.324 13.6604 23.324 13.8397 23.3464 14.2206C23.2344 14.2206 23.1671 14.2206 23.0551 14.2206C23.0551 13.6604 23.0327 13.3915 23.0327 12.8312C23.1447 12.8088 23.1895 12.8088 23.3016 12.8088Z" fill="#04032D"/>
<path d="M24.8252 14.1759C24.7356 14.1311 24.6684 14.0863 24.6236 14.019C24.5564 13.9518 24.5116 13.8846 24.4891 13.7949C24.4667 13.7053 24.4443 13.5933 24.4443 13.4812C24.4443 13.3692 24.4667 13.2571 24.4891 13.1675C24.5116 13.0778 24.5564 13.0106 24.6236 12.9434C24.6908 12.8762 24.758 12.8313 24.8476 12.7865C24.9373 12.7641 25.0269 12.7417 25.1389 12.7417C25.2509 12.7417 25.3405 12.7641 25.4302 12.7865C25.5198 12.8313 25.587 12.8762 25.6318 12.9434C25.699 13.0106 25.7214 13.0778 25.7662 13.1675C25.7886 13.2571 25.811 13.3692 25.811 13.4812C25.811 13.5933 25.7886 13.7053 25.7662 13.7949C25.7438 13.8846 25.699 13.9518 25.6318 14.019C25.5646 14.0863 25.4974 14.1311 25.4302 14.1535C25.3405 14.1759 25.2509 14.1983 25.1389 14.1983C25.0045 14.2431 24.9148 14.2207 24.8252 14.1759ZM25.3854 13.8622C25.4526 13.7725 25.475 13.6605 25.475 13.5036C25.475 13.3468 25.4526 13.2347 25.3854 13.1451C25.3181 13.0554 25.2285 13.0106 25.1165 13.0106C24.9821 13.0106 24.8924 13.0554 24.8252 13.1451C24.758 13.2347 24.7356 13.3468 24.7356 13.5036C24.7356 13.6605 24.758 13.7725 24.8252 13.8622C24.8924 13.9518 24.9821 13.9966 25.0941 13.9966C25.2285 13.9966 25.3181 13.9518 25.3854 13.8622Z" fill="#04032D"/>
<path d="M26.1695 12.809C26.3039 13.2124 26.3712 13.4141 26.4832 13.7951C26.64 13.4141 26.7072 13.2124 26.8641 12.809C26.9985 12.809 27.0657 12.809 27.1777 12.809C26.9537 13.3693 26.8193 13.6382 26.5952 14.1984C26.4832 14.1984 26.4384 14.1984 26.3264 14.1984C26.1247 13.6382 26.0351 13.3469 25.811 12.7866C25.9679 12.809 26.0351 12.809 26.1695 12.809Z" fill="#04032D"/>
<path d="M27.8719 12.8761C28.0735 13.4364 28.1631 13.7277 28.3424 14.2879C28.2079 14.2879 28.1631 14.2879 28.0287 14.2655C27.9839 14.1311 27.9615 14.0638 27.9391 13.9294C27.7374 13.9294 27.6478 13.907 27.4461 13.907C27.4013 14.0414 27.3789 14.1086 27.3117 14.2207C27.1997 14.2207 27.1325 14.2207 26.998 14.2207C27.2221 13.6605 27.3341 13.3915 27.5806 12.8313C27.715 12.8537 27.7598 12.8537 27.8719 12.8761ZM27.715 13.1899C27.6478 13.3915 27.603 13.4812 27.5358 13.6829C27.6702 13.6829 27.7374 13.6829 27.8719 13.7053C27.8046 13.5036 27.7822 13.3915 27.715 13.1899Z" fill="#04032D"/>
<path d="M28.2754 13.1452C28.2754 13.0331 28.2754 12.9883 28.2754 12.8987C28.7459 12.9211 28.97 12.9211 29.4405 12.9659C29.4405 13.078 29.4405 13.1228 29.4181 13.2124C29.2388 13.2124 29.1492 13.19 28.9924 13.19C28.97 13.6382 28.9475 13.8847 28.9251 14.3329C28.8131 14.3329 28.7459 14.3329 28.6339 14.3105C28.6563 13.8623 28.6563 13.6158 28.6787 13.1676C28.5218 13.1452 28.4546 13.1452 28.2754 13.1452Z" fill="#04032D"/>
<path d="M29.8888 14.1086C29.9336 14.1534 30.0008 14.1758 30.1128 14.1758C30.1576 14.1758 30.2024 14.1758 30.2248 14.1758C30.2472 14.1758 30.292 14.1534 30.3145 14.131C30.3369 14.1086 30.3593 14.1086 30.3593 14.0862C30.3593 14.0638 30.3817 14.0414 30.3817 14.019C30.3817 13.9741 30.3817 13.9517 30.3369 13.9069C30.3145 13.8621 30.2696 13.8397 30.18 13.8173C30.1128 13.7949 30.068 13.7949 30.0008 13.7725C29.9336 13.7501 29.8663 13.7276 29.8215 13.7052C29.7767 13.6828 29.7319 13.6604 29.6871 13.6156C29.6423 13.5708 29.6199 13.5484 29.5975 13.4811C29.5751 13.4363 29.5751 13.3691 29.5751 13.3019C29.5751 13.2346 29.5975 13.1674 29.6199 13.1226C29.6423 13.0778 29.6871 13.0329 29.7319 13.0105C29.7767 12.9881 29.8439 12.9657 29.9112 12.9433C29.9784 12.9209 30.0456 12.9209 30.1352 12.9209C30.2472 12.9209 30.3369 12.9433 30.4041 12.9657C30.4713 12.9881 30.5161 13.0329 30.5609 13.0778C30.6057 13.1226 30.6281 13.1674 30.6505 13.2122C30.6729 13.257 30.6729 13.3243 30.6729 13.3691C30.5609 13.3691 30.4937 13.3691 30.3817 13.3915C30.3817 13.3243 30.3369 13.257 30.3145 13.2122C30.2696 13.1674 30.2024 13.145 30.1352 13.145C30.0904 13.145 30.0456 13.145 30.0008 13.145C29.9784 13.145 29.9336 13.1674 29.9112 13.1674C29.8888 13.1898 29.8664 13.1898 29.8664 13.2122C29.8664 13.2346 29.8439 13.257 29.8439 13.257C29.8439 13.3019 29.8439 13.3467 29.8888 13.3691C29.9112 13.3915 29.956 13.4139 30.0456 13.4363C30.1128 13.4587 30.1576 13.4587 30.2472 13.4811C30.4041 13.526 30.5161 13.5708 30.5833 13.6604C30.6505 13.7276 30.6729 13.8397 30.6729 13.9517C30.6729 14.019 30.6505 14.0638 30.6281 14.1086C30.6057 14.1534 30.5609 14.1982 30.5161 14.2431C30.4713 14.2879 30.4041 14.3103 30.3369 14.3103C30.2696 14.3327 30.18 14.3327 30.0904 14.3327C29.8888 14.3103 29.7543 14.2655 29.6647 14.1758C29.5751 14.0862 29.5303 13.9517 29.5303 13.7949C29.6423 13.7949 29.7095 13.7949 29.8215 13.8173C29.8215 13.9966 29.8439 14.0638 29.8888 14.1086Z" fill="#04032D"/>
<path d="M31.2553 13.0554C31.2105 13.6156 31.1881 13.8845 31.1433 14.4448C31.0313 14.4448 30.9641 14.4224 30.8521 14.4224C30.8969 13.8621 30.9193 13.5932 30.9641 13.033C31.0761 13.0554 31.1209 13.0554 31.2553 13.0554Z" fill="#04032D"/>
<path d="M31.4121 13.0779C31.5465 13.0779 31.6138 13.1003 31.7482 13.1003C31.8602 13.3468 31.905 13.4588 32.0171 13.6829C32.1739 13.4588 32.2411 13.3692 32.3755 13.1451C32.51 13.1675 32.5548 13.1675 32.6892 13.1675C32.4652 13.4813 32.3531 13.6381 32.1291 13.9519C32.1067 14.1759 32.1067 14.288 32.0843 14.5121C31.9722 14.5121 31.905 14.4897 31.793 14.4897C31.8154 14.2656 31.8154 14.1535 31.8378 13.9294C31.681 13.5933 31.5914 13.414 31.4121 13.0779Z" fill="#04032D"/>
<path d="M33.3164 13.257C33.4733 13.8397 33.5629 14.131 33.6973 14.7137C33.5629 14.6913 33.5181 14.6913 33.3837 14.6913C33.3613 14.5568 33.3388 14.4896 33.294 14.3551C33.0924 14.3327 33.0028 14.3327 32.8011 14.3103C32.7339 14.4447 32.7115 14.4896 32.6667 14.624C32.5547 14.6016 32.4875 14.6016 32.353 14.6016C32.6219 14.0638 32.7563 13.7949 33.0252 13.257C33.1596 13.2346 33.2044 13.2346 33.3164 13.257ZM33.1372 13.5708C33.0476 13.7725 33.0028 13.8621 32.9132 14.0414C33.0476 14.0638 33.1148 14.0638 33.2492 14.0862C33.2044 13.8845 33.182 13.7725 33.1372 13.5708Z" fill="#04032D"/>
<path d="M34.3251 13.3691C34.2802 13.8173 34.2578 14.0638 34.1906 14.512C34.4595 14.5344 34.5939 14.5568 34.8628 14.6016C34.8404 14.6913 34.818 14.7585 34.7956 14.8481C34.4147 14.8033 34.2354 14.7809 33.877 14.7361C33.9442 14.1758 33.9666 13.9069 34.0338 13.3467C34.1458 13.3467 34.1906 13.3467 34.3251 13.3691Z" fill="#04032D"/>
<path d="M35.9155 13.5485C36.0499 14.1311 36.1171 14.4225 36.2515 15.0051C36.1171 14.9827 36.0723 14.9827 35.9379 14.9603C35.9155 14.8258 35.893 14.7586 35.8706 14.6241C35.669 14.6017 35.5794 14.5793 35.3777 14.5569C35.3105 14.669 35.2881 14.7362 35.2209 14.8706C35.1089 14.8482 35.0417 14.8482 34.9072 14.8258C35.1761 14.288 35.3329 14.0415 35.6242 13.5037C35.7586 13.5261 35.8034 13.5485 35.9155 13.5485ZM35.7362 13.8622C35.6466 14.0415 35.6018 14.1535 35.4898 14.3328C35.6242 14.3552 35.6914 14.3552 35.8258 14.3776C35.781 14.1759 35.781 14.0863 35.7362 13.8622Z" fill="#04032D"/>
<path d="M37.1253 13.7277C37.2373 13.7501 37.3269 13.7725 37.3941 13.8173C37.4614 13.8621 37.5062 13.8845 37.551 13.9518C37.5958 13.9966 37.6182 14.0414 37.6182 14.1086C37.6182 14.1535 37.6182 14.2207 37.6182 14.2655C37.5958 14.3551 37.5734 14.4224 37.5286 14.4896C37.4838 14.5344 37.4165 14.5792 37.3493 14.6241C37.439 14.8706 37.4614 15.005 37.551 15.2515C37.4165 15.2291 37.3717 15.2291 37.2373 15.2067C37.1701 14.9826 37.1477 14.8706 37.0805 14.6465C36.9684 14.6241 36.9236 14.6241 36.8116 14.6017C36.7892 14.8033 36.7668 14.9154 36.7444 15.1171C36.6324 15.0947 36.5652 15.0947 36.4531 15.0723C36.5203 14.512 36.5651 14.2431 36.6548 13.6829C36.8116 13.6829 36.9236 13.7053 37.1253 13.7277ZM37.1701 14.3551C37.1925 14.3551 37.2373 14.3327 37.2597 14.3327C37.2821 14.3103 37.3045 14.2879 37.3045 14.2655C37.3045 14.2431 37.3269 14.2207 37.3269 14.1759C37.3269 14.1535 37.3269 14.1311 37.3269 14.1086C37.3269 14.0862 37.3045 14.0638 37.3045 14.0414C37.2821 14.019 37.2597 13.9966 37.2373 13.9966C37.2149 13.9742 37.1701 13.9742 37.1029 13.9742C37.0133 13.9518 36.9908 13.9518 36.9012 13.9518C36.8788 14.1086 36.8788 14.1759 36.8564 14.3327C36.946 14.3551 36.9908 14.3551 37.0805 14.3551C37.1029 14.3551 37.1477 14.3551 37.1701 14.3551Z" fill="#04032D"/>
<path d="M38.5368 13.9517C38.604 14.3551 38.6488 14.5792 38.716 14.9826C38.9177 14.624 39.0297 14.4224 39.2313 14.0638C39.3658 14.0862 39.433 14.0862 39.545 14.1086C39.2313 14.624 39.0745 14.8705 38.7832 15.386C38.6712 15.3636 38.6264 15.3636 38.5144 15.3411C38.4023 14.7585 38.3351 14.4672 38.2007 13.8845C38.3351 13.9069 38.4023 13.9293 38.5368 13.9517Z" fill="#04032D"/>
<path d="M40.2171 14.2433C40.3291 14.826 40.3739 15.1173 40.486 15.7223C40.3515 15.6999 40.3067 15.6775 40.1723 15.6551C40.1499 15.5206 40.1499 15.4534 40.1275 15.319C39.9258 15.2741 39.8362 15.2741 39.6346 15.2293C39.5674 15.3414 39.5225 15.4086 39.4553 15.5206C39.3433 15.4982 39.2761 15.4982 39.1641 15.4758C39.4777 14.9604 39.6346 14.7139 39.9258 14.1985C40.0379 14.1985 40.1051 14.2209 40.2171 14.2433ZM39.993 14.5346C39.881 14.7139 39.8362 14.8035 39.7242 15.0052C39.8586 15.0276 39.9258 15.05 40.0603 15.0725C40.0603 14.8484 40.0379 14.7363 39.993 14.5346Z" fill="#04032D"/>
<path d="M41.5172 14.7362C41.2483 14.6914 41.0915 14.6465 40.8226 14.6017C40.845 14.5121 40.845 14.4449 40.8674 14.3552C41.2931 14.4449 41.4948 14.4673 41.9205 14.5569C41.8981 14.6465 41.8981 14.6914 41.8757 14.7586C41.5172 15.0723 41.3379 15.2292 41.0019 15.5429C41.2931 15.6102 41.45 15.6326 41.7188 15.6998C41.6964 15.7894 41.674 15.8343 41.6292 15.9463C41.2035 15.8567 41.0019 15.8118 40.5762 15.7446C40.5986 15.655 40.5986 15.6102 40.621 15.5429C40.9795 15.2068 41.1587 15.0499 41.5172 14.7362Z" fill="#04032D"/>
<path d="M42.4131 14.669C42.3011 15.2069 42.2339 15.4982 42.1218 16.036C42.0098 16.0136 41.9426 15.9912 41.8306 15.9688C41.9426 15.431 42.0098 15.1396 42.1218 14.6018C42.2339 14.6242 42.3011 14.6466 42.4131 14.669Z" fill="#04032D"/>
<path d="M43.1973 14.8481C43.3093 14.8705 43.399 14.9154 43.4662 14.9378C43.5334 14.9826 43.5782 15.0274 43.623 15.0722C43.6454 15.117 43.6678 15.1619 43.6678 15.2291C43.6678 15.2739 43.6678 15.3411 43.6678 15.386C43.6454 15.4756 43.623 15.5428 43.5782 15.5876C43.5334 15.6325 43.4662 15.6773 43.3766 15.6997C43.4438 15.9462 43.4662 16.0807 43.5334 16.3496C43.399 16.3272 43.3542 16.3048 43.2197 16.2823C43.1749 16.0582 43.1525 15.9462 43.1077 15.7221C42.9957 15.6997 42.9509 15.6773 42.8388 15.6549C42.794 15.8566 42.7716 15.9686 42.7268 16.1703C42.6148 16.1479 42.5476 16.1255 42.4355 16.1031C42.5476 15.5652 42.6148 15.2739 42.7268 14.7361C42.9061 14.7809 42.9957 14.8033 43.1973 14.8481ZM43.1973 15.4756C43.2197 15.4756 43.2645 15.4756 43.2869 15.4532C43.3093 15.4308 43.3318 15.4308 43.3318 15.4084C43.3542 15.386 43.3542 15.3636 43.3542 15.3411C43.3542 15.3187 43.3542 15.2963 43.3542 15.2739C43.3542 15.2515 43.3318 15.2291 43.3318 15.2067C43.3093 15.1843 43.2869 15.1619 43.2645 15.1395C43.2421 15.117 43.1973 15.117 43.1301 15.0946C43.0405 15.0722 43.0181 15.0722 42.9285 15.0498C42.9061 15.2067 42.8836 15.2739 42.8388 15.4308C42.9285 15.4532 42.9733 15.4532 43.0629 15.4756C43.1301 15.4756 43.1749 15.4756 43.1973 15.4756Z" fill="#04032D"/>
<path d="M44.2953 15.0948C44.1833 15.543 44.1385 15.7671 44.0264 16.2153C44.2953 16.2825 44.4297 16.3049 44.6762 16.3722C44.6314 16.4618 44.6314 16.5066 44.5866 16.6187C44.2281 16.529 44.0489 16.4842 43.668 16.3946C43.8024 15.8567 43.8472 15.5878 43.9816 15.0276C44.1161 15.05 44.1609 15.05 44.2953 15.0948Z" fill="#04032D"/>
<path d="M45.4379 15.3639C45.3035 15.9017 45.2362 16.1706 45.1018 16.7308C44.9898 16.7084 44.9226 16.686 44.8105 16.6636C44.945 16.1258 45.0122 15.8569 45.1466 15.2966C45.2586 15.319 45.3259 15.3415 45.4379 15.3639Z" fill="#04032D"/>
<path d="M46.7371 16.3497C46.6699 16.5738 46.6475 16.6858 46.5803 16.9099C46.4907 16.9547 46.401 16.9771 46.289 16.9995C46.177 16.9995 46.0874 16.9995 45.9753 16.9771C45.8633 16.9547 45.7737 16.9099 45.7065 16.8427C45.6393 16.7979 45.572 16.7306 45.5496 16.641C45.5048 16.5738 45.4824 16.4841 45.4824 16.3945C45.4824 16.3048 45.4824 16.1928 45.5048 16.1032C45.5272 15.9911 45.572 15.9015 45.6169 15.8118C45.6617 15.7222 45.7289 15.6774 45.7961 15.6102C45.8633 15.5653 45.9529 15.5429 46.0425 15.5205C46.1322 15.4981 46.2218 15.5205 46.3114 15.5429C46.401 15.5653 46.4682 15.5877 46.5355 15.6326C46.6027 15.6774 46.6475 15.7222 46.6699 15.767C46.7147 15.8118 46.7371 15.8791 46.7371 15.9239C46.7595 15.9911 46.7595 16.0359 46.7595 16.1032C46.6475 16.0808 46.5803 16.0808 46.4683 16.0583C46.4683 16.0135 46.4683 15.9911 46.4683 15.9687C46.4683 15.9463 46.4458 15.9239 46.4458 15.8791C46.4234 15.8567 46.401 15.8342 46.3786 15.8118C46.3562 15.7894 46.3114 15.7894 46.2666 15.767C46.1546 15.7446 46.065 15.767 45.9753 15.8342C45.9081 15.9015 45.8409 16.0135 45.7961 16.1704C45.7513 16.3273 45.7513 16.4393 45.7961 16.5289C45.8409 16.6186 45.9081 16.6858 46.0425 16.7306C46.1098 16.753 46.1546 16.753 46.1994 16.753C46.2442 16.753 46.289 16.753 46.3338 16.7306C46.3562 16.641 46.3786 16.5962 46.401 16.5065C46.289 16.4841 46.2442 16.4617 46.1322 16.4393C46.1546 16.3497 46.177 16.3048 46.1994 16.2152C46.4234 16.26 46.5355 16.3048 46.7371 16.3497Z" fill="#04032D"/>
<path d="M47.432 15.879C47.2751 16.4168 47.2079 16.6857 47.0735 17.2236C46.9615 17.2012 46.8943 17.1788 46.7822 17.1563C46.9391 16.6185 47.0063 16.3496 47.1407 15.8118C47.2751 15.8342 47.3199 15.8566 47.432 15.879Z" fill="#04032D"/>
<path d="M48.1039 23.476H47.723L46.8044 23.4536H46.4235H45.5497H45.1464H44.9672L45.2361 22.8262L45.8634 21.3471L46.2891 20.3387L45.9978 20.3611L45.5945 20.3835L44.6983 20.4284L44.295 20.4508L43.242 20.4956L42.7491 20.518L43.6677 17.8737L43.7349 17.7168C43.7349 17.7168 43.7125 17.7168 43.6901 17.7168C43.4885 17.7168 42.4578 17.7392 40.7998 18.0305C40.5758 18.0753 40.3741 18.1202 40.1277 18.165C39.5676 18.277 38.9402 18.4339 38.2457 18.6132L39.9933 18.9717L40.6206 19.1062L41.3152 19.2631C41.3152 19.2631 40.755 20.6524 39.9933 22.9382C39.5676 24.1932 39.0971 25.7394 38.6041 27.4874C37.8872 30.0645 37.1702 33.0449 36.6773 36.2047C36.6549 36.3391 36.6325 36.4512 36.6101 36.5856C36.6101 36.5856 35.7811 36.5856 34.5264 36.6977C32.1515 36.9218 28.2306 37.6389 25.2507 39.6782C25.0939 39.7678 24.9594 39.8798 24.825 39.9695C24.713 40.0591 24.6009 40.1263 24.4889 40.216L24.1528 39.9695C24.0184 39.8574 23.884 39.7678 23.7271 39.6782C20.5456 37.482 16.2886 36.8321 14.0033 36.6529C12.9951 36.5632 12.3678 36.5856 12.3678 36.5856C12.3453 36.4736 12.3229 36.3391 12.3005 36.2047C11.5164 31.3642 10.2617 26.8823 9.25344 23.745C9.25344 23.745 9.25344 23.745 9.25344 23.7226C8.76053 22.1987 8.31243 20.9886 8.02116 20.2267C7.7747 19.5992 7.64027 19.2631 7.64027 19.2631L7.84192 19.2182L8.46926 19.0838L10.7098 18.6132C9.81357 18.3667 9.00698 18.1874 8.31242 18.0753C8.06597 18.0305 7.84192 17.9857 7.64027 17.9633C6.16153 17.7168 5.28773 17.7168 5.24292 17.7168L6.22875 20.5404L5.24292 20.4956L4.18988 20.4508L3.78659 20.4284L2.89039 20.3835H2.71114L2.9576 20.9886L4.03305 23.476H3.33849H2.9352L2.0614 23.4985H1.65811H0.739497H0.381014H0.246582C0.291392 23.5657 0.35861 23.6553 0.403421 23.7226C0.560256 23.9466 0.71709 24.1932 0.873926 24.4173C1.29962 25.0671 1.72532 25.7842 2.10621 26.5013C2.28545 26.8599 2.46469 27.2184 2.64393 27.577C3.11444 28.5406 3.56254 29.549 3.98824 30.5575C4.18989 31.0729 4.41393 31.6107 4.61558 32.1261C5.17571 33.65 5.66862 35.129 6.09432 36.4736C6.16153 36.6977 6.22875 36.9218 6.29596 37.1235C6.49761 37.7733 6.67685 38.3784 6.83369 38.9386C7.05774 39.7454 7.23698 40.4401 7.37141 40.9779C7.43862 41.2692 7.50584 41.4933 7.52824 41.6726C7.59546 41.9415 7.64027 42.0984 7.64027 42.0984C7.7747 42.076 7.90913 42.076 8.04356 42.0536C9.20863 41.9191 10.3737 41.8071 11.5612 41.695C11.7628 41.6726 11.9869 41.6726 12.1885 41.6502C13.0623 41.583 13.9361 41.5157 14.7875 41.4485C14.9667 41.4261 15.1684 41.4261 15.3476 41.4037C18.0138 41.2244 20.7025 41.1348 23.3911 41.1348C23.7496 41.1124 24.108 41.1124 24.4665 41.1124C24.825 41.1124 25.1835 41.1124 25.5644 41.1348C28.253 41.1572 30.9416 41.2468 33.6078 41.4037C33.6526 41.4037 33.6974 41.4037 33.7422 41.4037C34.5936 41.4485 35.445 41.5157 36.2964 41.583C36.4981 41.583 36.7221 41.6054 36.9238 41.6278C38.0888 41.7174 39.2315 41.8295 40.3966 41.9639C40.7102 41.9863 41.0239 42.0312 41.3376 42.0536C41.3376 42.0536 41.3824 41.8967 41.4496 41.6278C41.472 41.4933 41.5168 41.3365 41.5616 41.1348C41.584 41.0675 41.6064 41.0003 41.6064 40.9331C41.6736 40.6866 41.7409 40.4177 41.8081 40.1263C42.0321 39.2972 42.3234 38.2664 42.6595 37.0786C42.9059 36.2719 43.1748 35.4203 43.4885 34.524C43.6901 33.9189 43.9142 33.269 44.1606 32.6191C44.5863 31.4763 45.0568 30.2886 45.5721 29.1457C45.7514 28.7199 45.953 28.3165 46.1547 27.9131C46.558 27.084 46.9837 26.2548 47.4318 25.4929C47.5886 25.2016 47.7678 24.9327 47.9247 24.6638C48.1935 24.238 48.4624 23.8346 48.7537 23.4536L48.1039 23.476ZM11.9196 39.7902C11.718 39.835 11.5164 39.8798 11.3147 39.9471C9.99281 40.2608 8.69331 40.6194 8.69331 40.6194C8.58129 40.1039 8.44685 39.5885 8.31242 39.0731C8.11078 38.2888 7.88673 37.5044 7.66268 36.7649C7.05774 34.7481 6.43039 32.9105 5.80305 31.3194C5.60141 30.7816 5.39976 30.2886 5.19811 29.818C4.72761 28.6751 4.2795 27.689 3.89862 26.9047C3.69697 26.4341 3.49532 26.0531 3.33849 25.717C2.98001 24.9775 2.75596 24.5741 2.75596 24.5741L3.13684 24.4397L3.51773 24.3052L4.34672 24.0139L4.45874 23.9691C4.61558 24.3724 4.77242 24.7982 4.92925 25.2464C5.66862 27.2857 6.4528 29.7283 7.16976 32.0141V32.0365C7.68508 33.7172 8.15559 35.3083 8.55888 36.608C9.14141 38.6025 9.54471 39.9695 9.54471 39.9695C10.0152 39.7902 10.6874 39.7006 11.2923 39.6557C11.494 39.6333 11.718 39.6333 11.9196 39.6333C12.5694 39.6109 13.0399 39.6333 13.0399 39.6333C12.7038 39.6333 12.3229 39.723 11.9196 39.7902ZM14.317 38.2888C13.264 38.2663 12.3453 38.2888 11.6956 38.3112C11.4491 38.3112 11.2475 38.3336 11.0683 38.3336C10.777 38.356 10.5977 38.356 10.5977 38.356C10.4409 37.6613 10.2841 36.9666 10.1272 36.2943C8.46926 29.3698 6.65445 24.9327 5.69103 22.8934C5.26533 21.997 5.01887 21.5712 5.01887 21.5712L5.44457 21.4144L6.58723 21.0334C8.29002 26.2324 9.38787 29.8852 10.0824 32.4175C10.0824 32.4399 10.0824 32.4399 10.0824 32.4623C10.5529 34.2102 10.8666 35.3979 11.0459 36.2271C11.3147 37.4596 11.3371 37.8182 11.3371 37.8182C11.4043 37.8182 11.494 37.7957 11.5836 37.7957C12.4798 37.7285 13.376 37.7061 14.205 37.7509C17.4985 37.9078 20.232 38.7145 20.5904 38.8266C18.5068 38.4456 16.199 38.3112 14.317 38.2888ZM34.28 38.3112C32.4875 38.3336 30.3815 38.4904 28.4322 38.849C28.7683 38.7369 31.2553 37.9974 34.3472 37.7957C35.1762 37.7285 36.0276 37.7285 36.9238 37.7733C37.1254 37.7733 37.327 37.7958 37.5511 37.8182C37.5959 37.8182 37.6183 37.8182 37.6631 37.8182C37.6631 37.8182 37.6855 37.4596 37.9544 36.2271C38.4249 34.2102 39.5452 29.8628 42.4354 21.0558L43.1076 21.2799L44.0262 21.5936C44.0262 21.5936 43.4212 22.6469 42.5474 24.7758C41.5392 27.2184 40.1725 31.0281 38.9178 36.2943C38.761 36.9666 38.6041 37.6389 38.4473 38.356C38.4473 38.356 38.0888 38.3336 37.4839 38.3112C37.3046 38.2888 37.0806 38.2888 36.8565 38.2888C36.162 38.2888 35.2658 38.2664 34.28 38.3112ZM46.2219 24.6638C46.065 24.9551 45.5945 25.8515 44.9672 27.2184C44.788 27.6218 44.5863 28.0476 44.3847 28.5406C43.959 29.5042 43.5109 30.6247 43.0404 31.8572C42.8387 32.395 42.6371 32.9777 42.413 33.5828C42.0545 34.5912 41.7185 35.6444 41.3824 36.7649C41.0239 37.9974 40.6654 39.2748 40.3517 40.6194C40.3517 40.6194 40.2397 40.5969 40.0381 40.5521C39.5003 40.3953 38.3129 40.1039 37.2374 39.8574C37.0358 39.8126 36.8341 39.7678 36.6325 39.723C36.4308 39.6782 36.2068 39.6333 36.0276 39.6109C36.0276 39.6109 36.274 39.5885 36.6549 39.6109C36.8341 39.6109 37.0582 39.6109 37.2822 39.6333C38.0216 39.6557 38.9178 39.7454 39.5452 39.9695C39.5452 39.9695 39.926 38.6249 40.531 36.608C40.6206 36.3167 40.7102 36.003 40.7998 35.6893C41.4944 33.3811 42.3906 30.4454 43.2644 27.7563C43.4885 27.084 43.7125 26.4341 43.9366 25.8066C44.1606 25.1568 44.3847 24.5293 44.6087 23.9691L45.0568 24.1259L45.4377 24.2604L46.2667 24.5517L46.3115 24.5741C46.2891 24.5517 46.2667 24.5965 46.2219 24.6638Z" fill="#04032D"/>
<path d="M49 12.966V14.6915C48.5071 14.1985 47.947 13.7503 47.3644 13.347C47.0956 13.1677 46.8267 13.0108 46.5578 12.8316C46.4234 12.7643 46.3114 12.6971 46.1769 12.6299C45.8857 12.473 45.6168 12.3385 45.348 12.2041C45.2135 12.1369 45.1015 12.092 44.9671 12.0248C44.6534 11.8904 44.3621 11.7559 44.0709 11.6439C42.9282 11.1733 41.9424 10.8819 41.3823 10.7475C41.1134 10.6802 40.9566 10.6354 40.9566 10.6354C40.8893 10.613 40.8221 10.5906 40.7549 10.5906C39.9483 10.3665 39.1193 10.1648 38.3127 10.008C33.6301 9.02193 28.7682 8.73061 24.6232 8.73061H24.5112C20.2318 8.7082 15.1907 9.02193 10.3736 10.0976C9.6342 10.2545 8.89483 10.4337 8.17787 10.6354C8.17787 10.6354 8.06584 10.6578 7.86419 10.7026C7.70736 10.7475 7.50572 10.7923 7.23685 10.8595C6.5647 11.0612 5.60128 11.3749 4.57064 11.8231C4.27938 11.9576 3.9657 12.092 3.67444 12.2489C3.54001 12.2937 3.42798 12.361 3.29355 12.4282C3.02469 12.5851 2.73342 12.7195 2.46456 12.8988C2.33013 12.966 2.21811 13.0557 2.08368 13.1453C1.81482 13.3246 1.54595 13.5038 1.27709 13.6831C1.16507 13.7728 1.03063 13.8624 0.918608 13.9744C0.627341 14.1985 0.358481 14.445 0.0896191 14.714C0.067214 14.7364 0.0224051 14.7812 0 14.8036V13.0781C2.82305 10.12 8.15546 8.90989 8.15546 8.90989C13.5999 7.40845 19.5597 7.00507 24.4888 7.02748H24.6008C29.5299 7.00507 35.4673 7.40845 40.9342 8.90989C40.979 8.90989 46.1545 10.0752 49 12.966Z" fill="#04032D"/>
<path d="M14.25 43.7119L15.5495 49.0454H18.9999V44.3394H24.5339H30.068L30.0456 49.0454H33.5184L34.8179 43.7119H14.25Z" fill="#04032D"/>
<path d="M36.5874 45.4598C36.7442 44.6979 37.0803 44.4514 37.0803 44.4514C37.5508 43.9584 39.6793 44.0032 39.6793 44.0032L48.9998 44.4962C48.0588 43.7343 45.3926 43.3533 45.3926 43.3533C42.2783 42.9948 39.1639 42.7259 36.0048 42.5242L34.4141 49.0678H48.9774V47.9249L36.0496 47.5215L36.5874 45.4598Z" fill="#04032D"/>
<path d="M12.4798 45.4598C12.323 44.6979 11.9869 44.4514 11.9869 44.4514C11.5164 43.9584 9.38791 44.0032 9.38791 44.0032L0.0673828 44.4962C1.0084 43.7343 3.6746 43.3533 3.6746 43.3533C6.78892 42.9948 9.90323 42.7259 13.0624 42.5242L14.6531 49.0678H0.0897859V47.9249L13.0175 47.5215L12.4798 45.4598Z" fill="#04032D"/>
<path d="M28.4768 44.8325V49.0455L27.6254 48.7318L27.6702 45.2359L27.7598 45.1463L24.6007 45.1687L21.4416 45.1463L21.5312 45.2359L21.576 48.7318L20.7246 49.0455V44.8325L21.1279 45.0566V44.8325H24.6007H28.0735V45.0566L28.4768 44.8325Z" fill="#04032D"/>
<path d="M34.7503 43.7121H34.6831V43.6897L34.7503 43.7121Z" fill="#04032D"/>
<path d="M42.7264 41.0449L42.8832 39.9917L43.3985 36.3613L43.7122 35.8683L43.3313 38.4006L42.9728 40.8208C42.9728 40.8208 42.8832 41.2242 43.1297 41.2018L48.9774 42.2999V42.6584L42.9504 41.4707C42.9728 41.4931 42.6816 41.4483 42.7264 41.0449ZM44.2947 35.6442L44.4292 34.7927L44.7652 34.2773L44.698 34.6582L43.8466 40.2606C43.8466 40.2606 43.8018 40.5519 44.0035 40.5743L48.9998 41.4931V41.8293L43.8466 40.8657C43.8466 40.8657 43.5554 40.7984 43.5778 40.3951L44.2947 35.6442ZM44.4964 39.6331L45.4822 33.112L45.7959 32.6189L44.7428 39.4987C44.7428 39.4987 44.6756 39.8796 44.9221 39.8572L48.9774 40.5967V40.9553L44.6756 40.1261C44.698 40.1037 44.4292 39.9917 44.4964 39.6331ZM45.415 38.8712L46.5577 31.4088L46.8713 30.9382L45.6614 38.7592C45.6614 38.7592 45.5718 39.1625 45.8855 39.1625L48.9998 39.7452V40.1037L45.6614 39.4315C45.6614 39.4315 45.3478 39.3642 45.415 38.8712Z" fill="#04032D"/>
<path d="M46.9833 37.8853C46.9833 37.8853 46.8937 38.3335 47.3418 38.3559L48.9774 38.5128V38.961L46.8937 38.7145C46.8937 38.7145 46.3112 38.6024 46.356 38.1767L47.7003 30.8263L48.0364 29.0112L48.7309 27.9131L48.1708 31.1849L47.7899 33.4034L48.9774 33.874V34.1653L47.7227 33.6723L47.4538 35.1738L48.9774 35.7788V36.0478L47.409 35.4427L47.0281 37.6164L46.9833 37.8853Z" fill="#04032D"/>
<path d="M6.31835 41.0449L6.16152 39.9917L5.6462 36.3613L5.33253 35.8683L5.71342 38.4006L6.0719 40.8208C6.0719 40.8208 6.16152 41.2242 5.91506 41.2018L0.0673284 42.2999V42.6584L6.0943 41.4931C6.0943 41.4931 6.36316 41.4483 6.31835 41.0449ZM4.7724 35.6442L4.63797 34.7927L4.30189 34.2773L4.36911 34.6582L5.22051 40.2606C5.22051 40.2606 5.26531 40.5519 5.06367 40.5743L0.0673284 41.4931V41.8293L5.22051 40.8657C5.22051 40.8657 5.51177 40.7984 5.48937 40.3951L4.7724 35.6442ZM4.54835 39.6331L3.56252 33.112L3.24885 32.6189L4.30189 39.4987C4.30189 39.4987 4.36911 39.8796 4.12265 39.8572L0.0673284 40.5967V40.9553L4.36911 40.1261C4.36911 40.1037 4.63797 39.9917 4.54835 39.6331ZM3.62974 38.8712L2.48708 31.4088L2.17341 30.9382L3.38328 38.7592C3.38328 38.7592 3.4729 39.1625 3.15923 39.1625L0.0449219 39.7452V40.1037L3.38328 39.4315C3.40569 39.4315 3.71936 39.3642 3.62974 38.8712Z" fill="#04032D"/>
<path d="M2.06144 37.8853C2.06144 37.8853 2.15106 38.3335 1.70295 38.3559L0.0673828 38.5128V38.961L2.15106 38.7145C2.15106 38.7145 2.73359 38.6024 2.68878 38.1767L1.34447 30.8263L1.0084 29.0112L0.313837 27.9131L0.873965 31.1849L1.25485 33.4034L0.0673828 33.874V34.1653L1.32207 33.6723L1.59093 35.1738L0.0673828 35.7788V36.0478L1.63574 35.4427L2.01663 37.6164L2.06144 37.8853Z" fill="#04032D"/>
<path d="M19.0333 33.6725C19.3157 33.3441 19.2786 32.8489 18.9503 32.5664C18.622 32.2839 18.1269 32.321 17.8444 32.6494C17.562 32.9777 17.5991 33.4729 17.9274 33.7554C18.2557 34.038 18.7508 34.0008 19.0333 33.6725Z" fill="#04032D"/>
<path d="M17.0617 31.7152C17.4297 31.4868 17.5429 31.0033 17.3145 30.6352C17.0861 30.2671 16.6027 30.1539 16.2347 30.3823C15.8667 30.6107 15.7535 31.0943 15.9819 31.4623C16.2102 31.8304 16.6937 31.9436 17.0617 31.7152Z" fill="#04032D"/>
<path d="M15.7458 29.2561C16.1654 29.1487 16.4185 28.7214 16.3111 28.3017C16.2037 27.8821 15.7765 27.629 15.3569 27.7364C14.9373 27.8438 14.6842 28.2711 14.7916 28.6908C14.8991 29.1104 15.3263 29.3635 15.7458 29.2561Z" fill="#04032D"/>
<path d="M16.0646 25.7826C16.0881 25.3501 15.7566 24.9804 15.3241 24.9569C14.8917 24.9334 14.5221 25.265 14.4986 25.6976C14.4751 26.1301 14.8066 26.4998 15.2391 26.5232C15.6715 26.5467 16.0411 26.2152 16.0646 25.7826Z" fill="#04032D"/>
<path d="M16.5822 23.3096C16.7344 22.9041 16.5291 22.4519 16.1236 22.2997C15.7182 22.1475 15.2661 22.3528 15.1139 22.7584C14.9618 23.1639 15.1671 23.6161 15.5725 23.7683C15.978 23.9205 16.43 23.7152 16.5822 23.3096Z" fill="#04032D"/>
<path d="M17.8254 21.0872C18.0923 20.746 18.0321 20.253 17.691 19.9861C17.3499 19.7192 16.857 19.7794 16.5901 20.1205C16.3233 20.4617 16.3835 20.9547 16.7246 21.2216C17.0657 21.4885 17.5585 21.4283 17.8254 21.0872Z" fill="#04032D"/>
<path d="M19.6663 19.3509C20.0233 19.1056 20.1138 18.6173 19.8686 18.2603C19.6233 17.9033 19.1351 17.8127 18.7782 18.058C18.4212 18.3033 18.3307 18.7916 18.5759 19.1486C18.8212 19.5057 19.3094 19.5962 19.6663 19.3509Z" fill="#04032D"/>
<path d="M21.9615 18.2403C22.3756 18.1134 22.6085 17.6748 22.4817 17.2606C22.3549 16.8464 21.9164 16.6135 21.5023 16.7403C21.0882 16.8672 20.8552 17.3057 20.982 17.72C21.1089 18.1342 21.5474 18.3671 21.9615 18.2403Z" fill="#04032D"/>
<path d="M25.2424 17.1072C25.2457 16.674 24.8973 16.3201 24.4642 16.3168C24.0311 16.3134 23.6774 16.6619 23.674 17.0951C23.6707 17.5282 24.0191 17.8821 24.4521 17.8854C24.8852 17.8888 25.239 17.5403 25.2424 17.1072Z" fill="#04032D"/>
<path d="M27.9449 17.792C28.078 17.3798 27.8519 16.9377 27.4398 16.8045C27.0278 16.6713 26.5857 16.8974 26.4526 17.3096C26.3194 17.7218 26.5455 18.1639 26.9576 18.2971C27.3697 18.4303 27.8117 18.2041 27.9449 17.792Z" fill="#04032D"/>
<path d="M30.329 19.2407C30.5797 18.8875 30.4967 18.3979 30.1435 18.1471C29.7904 17.8964 29.3009 17.9794 29.0502 18.3326C28.7994 18.6858 28.8825 19.1755 29.2356 19.4262C29.5888 19.677 30.0783 19.5939 30.329 19.2407Z" fill="#04032D"/>
<path d="M32.1572 21.3434C32.5024 21.0817 32.5702 20.5898 32.3086 20.2445C32.047 19.8993 31.5551 19.8315 31.21 20.0932C30.8648 20.3548 30.797 20.8468 31.0586 21.192C31.3202 21.5372 31.8121 21.605 32.1572 21.3434Z" fill="#04032D"/>
<path d="M33.2683 23.895C33.6761 23.749 33.8883 23.3 33.7423 22.8922C33.5964 22.4843 33.1475 22.2721 32.7398 22.4181C32.332 22.564 32.1198 23.013 32.2657 23.4208C32.4117 23.8287 32.8606 24.0409 33.2683 23.895Z" fill="#04032D"/>
<path d="M33.5451 26.6568C33.9779 26.64 34.3151 26.2755 34.2982 25.8427C34.2814 25.4098 33.917 25.0726 33.4842 25.0894C33.0515 25.1062 32.7143 25.4708 32.7311 25.9036C32.7479 26.3364 33.1124 26.6737 33.5451 26.6568Z" fill="#04032D"/>
<path d="M33.9605 28.8461C34.0744 28.4282 33.828 27.9971 33.4101 27.8832C32.9923 27.7693 32.5612 28.0158 32.4474 28.4337C32.3335 28.8516 32.5799 29.2827 32.9978 29.3966C33.4156 29.5105 33.8467 29.264 33.9605 28.8461Z" fill="#04032D"/>
<path d="M32.74 31.5913C32.974 31.2269 32.8683 30.7416 32.5039 30.5075C32.1395 30.2735 31.6544 30.3792 31.4204 30.7436C31.1863 31.1081 31.292 31.5933 31.6564 31.8274C32.0208 32.0615 32.5059 31.9558 32.74 31.5913Z" fill="#04032D"/>
<path d="M30.7498 33.8457C31.0825 33.5682 31.1272 33.0736 30.8498 32.7409C30.5724 32.4083 30.0779 32.3635 29.7453 32.6409C29.4127 32.9184 29.3679 33.413 29.6453 33.7457C29.9227 34.0784 30.4172 34.1231 30.7498 33.8457Z" fill="#04032D"/>
<path d="M20.5038 31.6318C20.7136 31.3879 20.686 31.0201 20.4421 30.8102C20.1983 30.6003 19.8305 30.6279 19.6207 30.8718C19.4108 31.1157 19.4384 31.4836 19.6823 31.6935C19.9262 31.9034 20.2939 31.8757 20.5038 31.6318Z" fill="#04032D"/>
<path d="M19.061 30.2274C19.3343 30.0577 19.4184 29.6985 19.2488 29.425C19.0791 29.1516 18.72 29.0675 18.4466 29.2372C18.1733 29.4069 18.0892 29.7661 18.2588 30.0395C18.4285 30.3129 18.7876 30.397 19.061 30.2274Z" fill="#04032D"/>
<path d="M18.114 28.4317C18.4257 28.3519 18.6137 28.0345 18.5339 27.7227C18.4541 27.411 18.1368 27.223 17.8251 27.3028C17.5134 27.3826 17.3254 27.7 17.4052 28.0117C17.485 28.3235 17.8024 28.5115 18.114 28.4317Z" fill="#04032D"/>
<path d="M18.356 25.9009C18.3735 25.5795 18.1272 25.3049 17.806 25.2875C17.4847 25.27 17.2102 25.5164 17.1927 25.8377C17.1753 26.159 17.4216 26.4336 17.7428 26.451C18.064 26.4685 18.3386 26.2222 18.356 25.9009Z" fill="#04032D"/>
<path d="M18.729 24.1106C18.8421 23.8093 18.6896 23.4735 18.3884 23.3604C18.0872 23.2473 17.7513 23.3999 17.6383 23.7011C17.5252 24.0024 17.6778 24.3382 17.979 24.4513C18.2802 24.5644 18.616 24.4119 18.729 24.1106Z" fill="#04032D"/>
<path d="M19.6311 22.4804C19.8293 22.2269 19.7846 21.8607 19.5312 21.6624C19.2778 21.4641 18.9117 21.5089 18.7134 21.7623C18.5152 22.0157 18.5599 22.3819 18.8133 22.5802C19.0667 22.7785 19.4328 22.7338 19.6311 22.4804Z" fill="#04032D"/>
<path d="M20.9597 21.225C21.2249 21.0427 21.2922 20.68 21.11 20.4148C20.9278 20.1496 20.5651 20.0823 20.2999 20.2645C20.0348 20.4468 19.9675 20.8095 20.1497 21.0747C20.3319 21.3399 20.6946 21.4072 20.9597 21.225Z" fill="#04032D"/>
<path d="M22.6203 20.4268C22.928 20.3326 23.101 20.0068 23.0068 19.6991C22.9126 19.3914 22.5868 19.2183 22.2792 19.3126C21.9716 19.4068 21.7985 19.7326 21.8927 20.0403C21.9869 20.348 22.3127 20.521 22.6203 20.4268Z" fill="#04032D"/>
<path d="M25.0265 19.5938C25.029 19.272 24.7702 19.0092 24.4484 19.0067C24.1267 19.0042 23.8639 19.263 23.8614 19.5848C23.8589 19.9066 24.1177 20.1695 24.4395 20.172C24.7612 20.1745 25.024 19.9156 25.0265 19.5938Z" fill="#04032D"/>
<path d="M27.0011 20.0945C27.1 19.7883 26.932 19.4599 26.6259 19.3609C26.3198 19.262 25.9914 19.43 25.8925 19.7361C25.7936 20.0423 25.9615 20.3707 26.2677 20.4697C26.5738 20.5686 26.9021 20.4007 27.0011 20.0945Z" fill="#04032D"/>
<path d="M28.7218 21.1385C28.908 20.8761 28.8464 20.5124 28.584 20.3261C28.3217 20.1398 27.958 20.2015 27.7718 20.4639C27.5856 20.7263 27.6472 21.09 27.9096 21.2763C28.1719 21.4625 28.5355 21.4008 28.7218 21.1385Z" fill="#04032D"/>
<path d="M30.0454 22.6899C30.3018 22.4955 30.3522 22.13 30.1578 21.8736C29.9635 21.6171 29.5981 21.5668 29.3417 21.7611C29.0853 21.9555 29.035 22.3209 29.2293 22.5774C29.4236 22.8339 29.789 22.8842 30.0454 22.6899Z" fill="#04032D"/>
<path d="M30.8473 24.5377C31.1502 24.4293 31.3079 24.0958 31.1995 23.7928C31.0911 23.4899 30.7576 23.3322 30.4547 23.4406C30.1518 23.5491 29.9941 23.8826 30.1026 24.1855C30.211 24.4885 30.5444 24.6462 30.8473 24.5377Z" fill="#04032D"/>
<path d="M31.0502 26.5448C31.3716 26.5323 31.6221 26.2615 31.6096 25.94C31.5971 25.6185 31.3264 25.368 31.0049 25.3805C30.6834 25.3929 30.433 25.6637 30.4455 25.9853C30.458 26.3068 30.7287 26.5573 31.0502 26.5448Z" fill="#04032D"/>
<path d="M31.3763 28.1309C31.4609 27.8205 31.2778 27.5002 30.9674 27.4156C30.657 27.331 30.3368 27.5141 30.2523 27.8246C30.1677 28.135 30.3507 28.4553 30.6611 28.5399C30.9715 28.6245 31.2917 28.4414 31.3763 28.1309Z" fill="#04032D"/>
<path d="M30.4762 30.1444C30.6501 29.8736 30.5716 29.5132 30.3009 29.3393C30.0302 29.1654 29.6698 29.2439 29.496 29.5146C29.3221 29.7854 29.4006 30.1459 29.6713 30.3197C29.942 30.4936 30.3024 30.4151 30.4762 30.1444Z" fill="#04032D"/>
<path d="M29.0242 31.7639C29.2713 31.5578 29.3045 31.1904 29.0984 30.9433C28.8924 30.6962 28.525 30.6629 28.278 30.869C28.0309 31.0751 27.9976 31.4425 28.2037 31.6897C28.4097 31.9368 28.7771 31.9701 29.0242 31.7639Z" fill="#04032D"/>
<path d="M21.934 29.6312C22.0631 29.4811 22.0461 29.2547 21.8961 29.1256C21.746 28.9964 21.5197 29.0134 21.3905 29.1635C21.2614 29.3136 21.2784 29.54 21.4285 29.6692C21.5785 29.7983 21.8049 29.7813 21.934 29.6312Z" fill="#04032D"/>
<path d="M21.0274 28.7384C21.1956 28.634 21.2474 28.4129 21.143 28.2446C21.0386 28.0764 20.8176 28.0246 20.6493 28.1291C20.4811 28.2335 20.4294 28.4545 20.5338 28.6228C20.6382 28.791 20.8592 28.8428 21.0274 28.7384Z" fill="#04032D"/>
<path d="M20.4362 27.61C20.628 27.5609 20.7437 27.3655 20.6946 27.1737C20.6455 26.9818 20.4502 26.8661 20.2584 26.9152C20.0666 26.9643 19.9509 27.1597 20 27.3515C20.0491 27.5434 20.2444 27.6591 20.4362 27.61Z" fill="#04032D"/>
<path d="M20.5679 26.0241C20.5786 25.8264 20.427 25.6574 20.2293 25.6467C20.0317 25.6359 19.8627 25.7875 19.852 25.9852C19.8412 26.183 19.9928 26.352 20.1905 26.3627C20.3882 26.3734 20.5571 26.2219 20.5679 26.0241Z" fill="#04032D"/>
<path d="M20.8167 24.8777C20.8863 24.6923 20.7924 24.4857 20.6071 24.4161C20.4217 24.3465 20.2151 24.4404 20.1455 24.6257C20.0759 24.8111 20.1698 25.0178 20.3551 25.0874C20.5405 25.157 20.7472 25.0631 20.8167 24.8777Z" fill="#04032D"/>
<path d="M21.3798 23.8509C21.5018 23.6949 21.4743 23.4696 21.3184 23.3476C21.1624 23.2255 20.9371 23.253 20.8151 23.409C20.6931 23.565 20.7206 23.7903 20.8766 23.9123C21.0325 24.0344 21.2578 24.0069 21.3798 23.8509Z" fill="#04032D"/>
<path d="M22.222 23.0577C22.3852 22.9455 22.4266 22.7223 22.3144 22.5591C22.2023 22.3959 21.9791 22.3545 21.816 22.4666C21.6528 22.5788 21.6114 22.802 21.7235 22.9652C21.8356 23.1284 22.0588 23.1698 22.222 23.0577Z" fill="#04032D"/>
<path d="M23.2754 22.5658C23.4647 22.5078 23.5711 22.3073 23.5132 22.118C23.4552 21.9286 23.2548 21.8221 23.0654 21.8801C22.8761 21.9381 22.7696 22.1386 22.8276 22.328C22.8856 22.5173 23.0861 22.6238 23.2754 22.5658Z" fill="#04032D"/>
<path d="M24.8008 22.0449C24.8023 21.8469 24.643 21.6851 24.4451 21.6836C24.2471 21.6821 24.0853 21.8414 24.0838 22.0394C24.0823 22.2374 24.2416 22.3992 24.4395 22.4007C24.6375 22.4022 24.7993 22.243 24.8008 22.0449Z" fill="#04032D"/>
<path d="M26.0395 22.3415C26.1004 22.1531 25.997 21.951 25.8086 21.8901C25.6203 21.8292 25.4182 21.9326 25.3573 22.121C25.2964 22.3094 25.3998 22.5115 25.5882 22.5724C25.7765 22.6333 25.9786 22.5299 26.0395 22.3415Z" fill="#04032D"/>
<path d="M27.1105 23.0151C27.2251 22.8536 27.1872 22.6298 27.0257 22.5152C26.8643 22.4005 26.6405 22.4385 26.5259 22.6C26.4113 22.7614 26.4492 22.9853 26.6107 23.0999C26.7721 23.2145 26.9959 23.1766 27.1105 23.0151Z" fill="#04032D"/>
<path d="M27.9614 23.9866C28.1192 23.867 28.1502 23.642 28.0306 23.4842C27.911 23.3264 27.6862 23.2954 27.5284 23.415C27.3706 23.5346 27.3396 23.7595 27.4592 23.9174C27.5788 24.0752 27.8036 24.1062 27.9614 23.9866Z" fill="#04032D"/>
<path d="M28.4663 25.1549C28.6527 25.0882 28.7498 24.8829 28.683 24.6965C28.6163 24.5101 28.4111 24.413 28.2247 24.4798C28.0383 24.5465 27.9413 24.7517 28.008 24.9382C28.0747 25.1246 28.2799 25.2216 28.4663 25.1549Z" fill="#04032D"/>
<path d="M28.5994 26.4101C28.7972 26.4024 28.9514 26.2358 28.9437 26.0379C28.936 25.8401 28.7694 25.6859 28.5716 25.6936C28.3737 25.7013 28.2196 25.8679 28.2273 26.0658C28.235 26.2636 28.4016 26.4178 28.5994 26.4101Z" fill="#04032D"/>
<path d="M28.7928 27.4288C28.8449 27.2377 28.7322 27.0406 28.5412 26.9886C28.3502 26.9365 28.1531 27.0492 28.1011 27.2402C28.049 27.4313 28.1617 27.6284 28.3527 27.6804C28.5437 27.7325 28.7408 27.6198 28.7928 27.4288Z" fill="#04032D"/>
<path d="M28.2145 28.682C28.3214 28.5154 28.2731 28.2936 28.1066 28.1866C27.94 28.0796 27.7182 28.1279 27.6112 28.2945C27.5042 28.4611 27.5525 28.6829 27.7191 28.79C27.8857 28.897 28.1075 28.8486 28.2145 28.682Z" fill="#04032D"/>
<path d="M27.3171 29.7058C27.4691 29.579 27.4896 29.3529 27.3628 29.2008C27.2359 29.0487 27.0099 29.0283 26.8578 29.1551C26.7058 29.2819 26.6853 29.5081 26.8121 29.6601C26.9389 29.8122 27.165 29.8327 27.3171 29.7058Z" fill="#04032D"/>
<path d="M26.5499 33.5602H22.2481C22.1585 33.5602 22.0688 33.493 22.0688 33.381V32.3277C22.0688 32.2381 22.1361 32.1484 22.2481 32.1484H26.5499C26.6395 32.1484 26.7291 32.2157 26.7291 32.3277V33.381C26.7291 33.4706 26.6395 33.5602 26.5499 33.5602Z" fill="#04032D"/>
<path d="M26.1691 35.2186H22.6291C22.5618 35.2186 22.4946 35.1513 22.4946 35.0841V34.2101C22.4946 34.1429 22.5618 34.0757 22.6291 34.0757H26.1691C26.2363 34.0757 26.3035 34.1429 26.3035 34.2101V35.0841C26.3035 35.1513 26.2587 35.2186 26.1691 35.2186Z" fill="#04032D"/>
<path d="M25.6312 36.5633H23.1667C23.0994 36.5633 23.0322 36.4961 23.0322 36.4289V35.8911C23.0322 35.8238 23.0994 35.7566 23.1667 35.7566H25.6312C25.6984 35.7566 25.7656 35.8238 25.7656 35.8911V36.4289C25.7656 36.4961 25.6984 36.5633 25.6312 36.5633Z" fill="#04032D"/>
<path d="M24.3545 26.3445C24.3545 26.3445 23.9512 25.0447 22.5845 25.224C22.5845 25.224 22.9654 26.5686 24.1976 26.7479V32.171H24.6009V26.7031C24.6009 26.7031 26.2589 26.3669 26.5726 24.126C26.5726 24.126 24.6906 24.0363 24.3545 26.3445ZM24.4441 26.8151C24.1528 26.2549 23.5927 25.8515 23.5927 25.8515C24.1528 26.098 24.3769 26.479 24.3769 26.479C24.6009 25.8067 25.3627 25.224 25.3627 25.224C24.6233 26.0308 24.4441 26.8151 24.4441 26.8151Z" fill="#04032D"/>
<path d="M24.4214 8.05836V1.24586C24.4214 1.24586 24.2646 1.15622 24.5335 0.932129C24.5335 0.932129 24.7799 1.13381 24.6455 1.24586V8.05836H24.4214Z" fill="#04032D"/>
<path d="M29.4624 3.75559V4.76402C27.894 3.82282 26.3257 5.70522 24.7573 4.76402V3.75559C26.3257 4.69679 27.894 2.81439 29.4624 3.75559Z" fill="#04032D"/>
<path d="M24.7573 1.44748V2.45591C26.3257 3.39711 27.894 1.51471 29.4624 2.45591V1.44748C27.894 0.506282 26.3257 2.38868 24.7573 1.44748ZM25.6983 2.59037C25.6759 2.59037 25.6535 2.59037 25.6311 2.59037C25.4295 2.59037 25.2502 2.36627 25.2502 2.16459C25.2502 1.9629 25.4071 1.82844 25.6311 1.85085C25.6535 1.85085 25.6759 1.85085 25.6983 1.85085C25.5191 1.87326 25.3847 2.00772 25.3847 2.187C25.3847 2.36627 25.5191 2.54555 25.6983 2.59037ZM25.8776 2.56796C25.8552 2.56796 25.8552 2.54555 25.8328 2.54555C25.8104 2.56796 25.8104 2.56796 25.788 2.59037C25.788 2.56796 25.788 2.54555 25.8104 2.54555C25.788 2.54555 25.788 2.52314 25.7656 2.52314H25.8104C25.8104 2.50073 25.8104 2.47832 25.8328 2.47832C25.8328 2.50073 25.8328 2.50073 25.8552 2.52314C25.8776 2.52314 25.9 2.52314 25.9 2.52314C25.8776 2.52314 25.8776 2.54555 25.8552 2.56796C25.8776 2.54555 25.8776 2.54555 25.8776 2.56796ZM26.1913 2.54555C26.1689 2.54555 26.1688 2.52314 26.1464 2.52314C26.124 2.52314 26.124 2.54555 26.1016 2.56796C26.1016 2.54555 26.1016 2.52314 26.124 2.52314C26.1016 2.52314 26.1016 2.50073 26.0792 2.50073C26.1016 2.50073 26.124 2.50073 26.124 2.50073C26.124 2.47832 26.124 2.45591 26.1464 2.45591C26.1464 2.47832 26.1464 2.47832 26.1689 2.50073C26.1913 2.50073 26.2137 2.50073 26.2137 2.50073C26.1913 2.50073 26.1913 2.52314 26.1689 2.54555C26.1689 2.50073 26.1913 2.52314 26.1913 2.54555ZM26.1689 2.187C26.1689 2.20941 26.1689 2.20941 26.1913 2.23182C26.1689 2.23182 26.1688 2.20941 26.1464 2.20941C26.124 2.23182 26.124 2.23182 26.1016 2.25423C26.1016 2.23182 26.1016 2.20941 26.124 2.20941C26.1016 2.20941 26.1016 2.187 26.0792 2.187C26.1016 2.187 26.124 2.187 26.124 2.187C26.124 2.16459 26.124 2.14218 26.1464 2.14218C26.1464 2.16459 26.1464 2.16459 26.1689 2.187C26.1913 2.187 26.2137 2.187 26.2137 2.187C26.2137 2.16459 26.1913 2.16459 26.1689 2.187ZM26.5049 2.47832C26.4825 2.47832 26.4825 2.45591 26.4601 2.45591C26.4377 2.47832 26.4377 2.47832 26.4153 2.50073C26.4153 2.47832 26.4153 2.45591 26.4377 2.45591C26.4153 2.45591 26.4153 2.4335 26.3929 2.4335C26.4153 2.4335 26.4377 2.4335 26.4377 2.4335C26.4377 2.41109 26.4377 2.38868 26.4601 2.36627C26.4601 2.38868 26.4825 2.38868 26.4825 2.41109C26.5049 2.41109 26.5273 2.41109 26.5273 2.38868C26.5049 2.41109 26.5049 2.41109 26.4825 2.4335C26.4825 2.4335 26.4825 2.45591 26.5049 2.47832ZM26.4825 2.11977C26.4825 2.14218 26.4825 2.14218 26.5049 2.16459C26.4825 2.16459 26.4825 2.14218 26.4601 2.14218C26.4377 2.16459 26.4377 2.16459 26.4153 2.187C26.4153 2.16459 26.4153 2.14218 26.4377 2.14218C26.4153 2.14218 26.4153 2.11977 26.3929 2.11977C26.4153 2.11977 26.4377 2.11977 26.4377 2.11977C26.4377 2.09736 26.4377 2.07495 26.4601 2.07495C26.4601 2.09736 26.4825 2.09736 26.4825 2.11977C26.5049 2.11977 26.5273 2.11977 26.5273 2.09736C26.5049 2.09736 26.5049 2.11977 26.4825 2.11977ZM26.4825 1.82844C26.4825 1.85085 26.4825 1.85085 26.5049 1.87326C26.4825 1.87326 26.4825 1.85085 26.4601 1.85085C26.4377 1.87326 26.4377 1.87326 26.4153 1.89567C26.4153 1.87326 26.4153 1.85085 26.4377 1.85085C26.4153 1.85085 26.4153 1.82844 26.3929 1.82844C26.4153 1.82844 26.4377 1.82844 26.4377 1.82844C26.4377 1.80604 26.4377 1.78363 26.4601 1.76122C26.4601 1.78363 26.4825 1.78363 26.4825 1.80604C26.5049 1.80604 26.5273 1.80604 26.5273 1.78363C26.5049 1.78363 26.5049 1.80604 26.4825 1.82844ZM26.8186 2.38868C26.7962 2.38868 26.7962 2.38868 26.7738 2.36627C26.7514 2.38868 26.7514 2.38868 26.729 2.41109C26.729 2.38868 26.729 2.36627 26.7514 2.36627C26.729 2.36627 26.729 2.34386 26.7066 2.34386C26.729 2.34386 26.7514 2.34386 26.7514 2.32145C26.7514 2.29905 26.7514 2.27664 26.7738 2.25423C26.7738 2.27664 26.7962 2.27664 26.7962 2.29905C26.8186 2.29905 26.841 2.29905 26.841 2.27664C26.8186 2.29905 26.8186 2.29905 26.7962 2.32145C26.7962 2.36627 26.7962 2.38868 26.8186 2.38868ZM26.7962 2.05254C26.7962 2.07495 26.7962 2.07495 26.8186 2.09736C26.7962 2.09736 26.7962 2.07495 26.7738 2.07495C26.7514 2.09736 26.7514 2.09736 26.729 2.11977C26.729 2.09736 26.729 2.07495 26.7514 2.05254C26.729 2.05254 26.729 2.03013 26.7066 2.03013C26.729 2.03013 26.7514 2.03013 26.7514 2.00772C26.7514 1.98531 26.7514 1.9629 26.7738 1.9629C26.7738 1.98531 26.7962 1.98531 26.7962 2.00772C26.8186 2.00772 26.841 2.00772 26.841 1.98531C26.8186 2.00772 26.7962 2.03013 26.7962 2.05254ZM26.7962 1.73881C26.7962 1.76122 26.7962 1.76122 26.8186 1.78363C26.7962 1.78363 26.7962 1.76122 26.7738 1.76122C26.7514 1.78363 26.7514 1.78363 26.729 1.80604C26.729 1.78363 26.729 1.76122 26.7514 1.76122C26.729 1.76122 26.729 1.73881 26.7066 1.73881C26.729 1.73881 26.7514 1.73881 26.7514 1.7164C26.7514 1.69399 26.7514 1.67158 26.7738 1.64917C26.7738 1.67158 26.7962 1.67158 26.7962 1.69399C26.8186 1.69399 26.841 1.69399 26.841 1.67158C26.8186 1.7164 26.7962 1.73881 26.7962 1.73881ZM27.1099 2.29905C27.0875 2.29905 27.0875 2.29905 27.0651 2.27664C27.0427 2.29905 27.0426 2.29905 27.0202 2.32145C27.0202 2.29905 27.0202 2.27664 27.0426 2.25423C27.0202 2.25423 27.0202 2.23182 26.9978 2.23182C27.0202 2.23182 27.0426 2.23182 27.0426 2.20941C27.0426 2.187 27.0427 2.16459 27.0651 2.14218C27.0651 2.16459 27.0875 2.16459 27.0875 2.187C27.1099 2.187 27.1323 2.187 27.1323 2.16459C27.1099 2.187 27.1099 2.187 27.0875 2.20941C27.1099 2.27664 27.1099 2.27664 27.1099 2.29905ZM27.0875 1.9629C27.0875 1.98531 27.1099 1.98531 27.1099 2.00772C27.0875 2.00772 27.0875 1.98531 27.0651 1.98531C27.0427 2.00772 27.0426 2.00772 27.0202 2.03013C27.0202 2.00772 27.0202 1.98531 27.0426 1.98531C27.0202 1.98531 27.0202 1.9629 26.9978 1.9629C27.0202 1.9629 27.0426 1.9629 27.0426 1.94049C27.0426 1.91808 27.0427 1.89567 27.0651 1.87326C27.0651 1.89567 27.0875 1.89567 27.0875 1.91808C27.1099 1.91808 27.1323 1.91808 27.1323 1.89567L27.0875 1.9629ZM27.0875 1.64917C27.0875 1.67158 27.1099 1.67158 27.1099 1.69399C27.0875 1.69399 27.0875 1.69399 27.0651 1.67158C27.0427 1.69399 27.0426 1.69399 27.0202 1.7164C27.0202 1.69399 27.0202 1.67158 27.0426 1.64917C27.0202 1.64917 27.0202 1.62676 26.9978 1.62676C27.0202 1.62676 27.0426 1.62676 27.0426 1.60435C27.0426 1.58194 27.0427 1.55953 27.0651 1.53712C27.0651 1.55953 27.0875 1.55953 27.0875 1.58194C27.1099 1.58194 27.1323 1.58194 27.1323 1.55953C27.1323 1.62676 27.1099 1.62676 27.0875 1.64917Z" fill="#04032D"/>
<path d="M29.4624 2.59055V3.59898C27.894 2.65778 26.3257 4.54018 24.7573 3.59898V2.59055C26.3257 3.53175 27.894 1.64935 29.4624 2.59055Z" fill="#04032D"/>
</svg>
